<svg xmlns="http://www.w3.org/2000/svg" width="362" height="120" fill="none"><g fill="#E20010" clip-path="url(#a)"><path d="M172.78 87.26c-1.35.96-4.12 1.78-7.13 1.78-5.52 0-8-4.24-7.9-9.17.1-4.1 2.64-8.72 9.53-8.72h5.5v16.1zm-5.68-45.3c-6.55 0-12.44 1.84-18.5 4.85l-1.54.8 3.68 8.24 2.08-1c4.3-1.9 8.86-3.2 12.97-3.02 4.97.2 7 2.5 7 7.24v2.8h-8.13c-13.07 0-21.2 6.93-21.44 17.7 0 10.2 8.52 19 20.37 19 9.57 0 17.67-3.1 23.13-8.56V60.82c0-14.2-10.14-18.87-19.63-18.87zM361.27 89v8.63s-2.9.55-5.25.55c-10.95 0-17.5-5.16-17.5-17.2V30.1l13.77-2.34v54.08c0 4.17 1.2 6.67 6.9 7.12.78.06 2.07.02 2.07.02zm-60.35-25.67c.23-5.3 2.43-10.74 7.85-10.74 6.1 0 7 6.6 7 10.73h-14.85zm10.82 25.6c-3.76 0-6.3-1.23-7.97-3.02-2.47-2.66-3.56-8.14-3.26-13.97h29.6v-1.36c-.27-19.38-6.87-28.2-21.33-28.2-16.13 0-22.42 14.84-22.54 28.8-.1 8.82 3.23 17.7 9.3 22.76 3.72 3.08 8.86 4.8 14.82 4.8 3.24 0 6.63-.5 9.73-1.46 5.93-1.84 10.3-5 10.3-5l-3.86-7.98c-.7.52-6.62 4.64-14.78 4.64zm-30.33.12v8.5s-2.53.5-5.22.5c-11.2 0-17.9-5.4-17.9-16.84V30.1l14.07-2.24v15.1h9.05v10.08h-9.05V81.8c0 3.75 1.16 7 7.06 7.2.8.04 1.86.04 2 .05zM197 45.15l13.73-2.23v54.66H197V45.16zm7-24.07c2.4 0 4.6.93 6.23 2.6 1.6 1.68 2.45 3.87 2.38 6.18 0 4.86-3.82 8.7-8.7 8.7-4.9 0-8.73-3.85-8.73-8.76 0-4.8 3.97-8.72 8.84-8.72zm50.58 22.67l-3.87 8.68s-2.2-.7-5.6-.57c-3.7.15-7.57 1.7-9.4 3.5V97.6h-14v-44.9c8.35-8.87 17.6-10.63 23.63-10.63 4.16 0 7.74.9 9.25 1.65zM79.44 0v.15h-1.2V.3h-1.38v.16h-1.2V.6h-1.08v.16h-.76V.9h-.76v.16h-.76v.16h-.76v.15h-.76v.15h-.75v.15h-.46v.15h-.6v.15h-.62v.16h-.6v.15h-.46v.15h-.62v.15h-.6v.15h-.6v.16H65v.14h-.44v.15h-.46v.14h-.45v.15h-.46v.15h-.47v.15h-.45v.15h-.46v.15h-.45v.15h-.46v.16h-.44v.16H60v.15h-.46v.16h-.45V5h-.32v.16h-.45v.16h-.3v.15h-.46v.15h-.3v.15h-.46v.15h-.45v.16h-.3v.15h-.46v.15h-.3v.15h-.46v.15h-.3v.16h-.46V7h-.3v.14h-.3v.15h-.32v.14h-.45v.15h-.3v.15h-.3v.15h-.3v.15h-.3v.15h-.46v.15h-.3v.16h-.3v.16h-.3v.15h-.32v.16h-.45v.15h-.3v.17h-.3v.15h-.3v.15h-.32v.15h-.3v.15h-.3v.16h-.3v.15h-.3v.15h-.32v.15h-.3v.15h-.3v.15h-.3v.16h-.3v.15h-.32v.14h-.3v.15h-.3v.14h-.15v.16h-.3v.15h-.3V12h-.3v.15h-.3v.15h-.3v.16h-.32v.15h-.15v.16h-.3v.15h-.3v.16h-.3v.16h-.16v.15h-.3v.15h-.3v.15h-.3v.15h-.17v.15h-.3v.16h-.3v.15h-.3v.15h-.3v.15h-.16v.15h-.32v.16h-.3v.14h-.3v.15h-.16v.14h-.3v.15h-.15v.15h-.3v.15h-.16v.15h-.3v.15h-.3v.15h-.15v.16h-.3v.16h-.15v.15h-.3v.16h-.3V17h-.16v.16h-.3v.16h-.16v.15h-.3v.15h-.15v.15h-.3v.15h-.3v.16h-.16v.15h-.3v.15h-.16v.15h-.3v.15h-.15v.16h-.3V19h-.15v.14h-.15v.15h-.3v.14h-.16v.15H31v.15h-.16v.15h-.3v.15h-.16v.15h-.15v.15h-.3v.16h-.16v.16h-.3v.15h-.15v.16h-.3v.15h-.16v.17h-.15v.15h-.3v.15h-.15v.15h-.3v.15h-.15v.16h-.15v.15h-.3v.15h-.16v.15h-.16v.15h-.3v.15h-.16v.16h-.15v.15h-.15v.14h-.3v.15h-.16v.14h-.15v.16h-.3v.15h-.15V24h-.16v.15h-.15v.15h-.3v.16h-.14v.15h-.16v.16H24v.15h-.15v.16h-.15v.16h-.3v.15h-.16v.15h-.15v.15h-.16v.15h-.16v.15h-.15v.16h-.3v.15h-.15v.15h-.15v.15h-.16v.15h-.15v.16h-.15v.14h-.3v.15h-.16v.14h-.14v.15h-.15v.15h-.14v.15h-.15v.15h-.3v.15h-.15v.15h-.15v.16h-.15v.16h-.16v.15h-.16v.16h-.3V29H19v.16h-.16v.16h-.16v.15h-.15v.15h-.15v.15h-.15v.15h-.15v.16h-.16v.15h-.15v.15h-.15v.15h-.15v.15h-.15v.16h-.16V31H17v.14h-.14v.15h-.15v.14h-.14v.15h-.15v.15h-.15v.15h-.15v.15h-.3v.15h-.15v.15h-.16v.16h-.16v.16h-.15v.15h-.16v.16h-.15v.15h-.17v.17h-.15v.15h-.15v.15h-.15v.3h-.15v.16h-.16v.15h-.15v.15h-.15v.15h-.15v.15h-.15v.15h-.15v.16h-.16v.15h-.15v.14h-.14v.3h-.15v.16h-.14v.15h-.16V36h-.15v.15H12v.15h-.15v.16h-.15v.15h-.16v.16h-.15v.3h-.16v.16h-.15v.15h-.16v.15h-.16v.15h-.15v.15h-.15v.3h-.15v.16h-.15v.15h-.15v.3h-.16v.16h-.15v.14h-.15v.15h-.15v.3h-.15v.15H9.1v.15h-.14v.3H8.8v.15h-.14v.16H8.5v.16h-.15v.3H8.2V41h-.15v.16H7.9v.3h-.15v.16H7.6v.15h-.16v.3H7.3v.16h-.16v.3H7v.15h-.16v.16h-.16v.3h-.15v.15h-.15v.3h-.15v.15h-.15v.3h-.16v.3h-.15v.16h-.15v.3h-.15v.16h-.15v.3h-.16v.3H5v.16h-.14v.3H4.7v.16h-.14v.3H4.4v.3h-.15v.3H4.1v.3h-.15v.16H3.8v.3h-.15v.3H3.5v.32h-.16v.3H3.2v.3h-.16v.3H2.9v.3h-.17v.3h-.15v.32h-.15v.45h-.15v.3h-.15v.3h-.16v.47h-.15v.3h-.15v.46h-.15V53h-.15v.32h-.15v.6h-.16v.46H.9v.46H.77v.6H.6v.76H.47v.6H.3v1.07H.15v1.83H0v1.67h.15v1.52H.3v.75h.16v.6H.6v.6h.16v.47H.9v.45h.16v.46h.16v.3h.15v.3h.15v.3h.15v.3h.15v.32h.15v.3h.16v.3h.15v.16h.15v.3h.15v.16h.15v.3h.16v.16h.14v.3h.15v.15h.14v.16h.15v.15h.15v.15h.15v.15h.15v.15h.15v.15h.15v.16h.16v.15h.16v.14h.15v.15h.16v.14H5v.16h.16v.15h.16V72h.15v.15h.15v.15h.15v.16h.15v.15h.3v.16h.16v.15h.3v.16h.16v.16h.3v.15h.15v.15h.3v.15h.15v.15h.3v.15h.15v.16h.3v.15h.16v.15h.3v.15h.3v.15h.46v.16h.3v.14h.3v.15h.46v.14h.3v.15h.3v.15H12v.15h.76v.15h.76v.15h.76v.15h3.8v-.15h1.06v-.15h.9v-.15h.62v-.15h.6v-.16h.46v-.16h.46v-.15h.6v-.16h.46v-.15h.3v-.17H24v-.15h.3v-.15h.3v-.15h.46v-.15h.3v-.16h.3v-.15h.3v-.15h.32v-.15h.3v-.15h.3v-.15h.3v-.16h.3v-.15h.32v-.14h.3v-.15h.3v-.14h.3v-.16h.16v-.15h.3V72h.16v-.15h.3v-.15h.3v-.16h.16v-.15h.3v-.16h.3v-.15h.16v-.16h.3v-.16h.15v-.15h.3v-.15h.15v-.15h.3v-.15h.15v-.15h.3v-.16h.16v-.15h.3v-.15h.15v-.15h.32v-.15h.15v-.16h.3v-.14h.16v-.15h.15v-.14h.3v-.15h.15v-.15h.15v-.15h.3v-.15h.16v-.15h.3v-.15h.16v-.16h.15v-.16h.3v-.15h.15v-.16h.16V67h.3v-.16h.15v-.16h.16v-.15h.3v-.15h.16v-.15h.15v-.15h.3v-.16h.16v-.15h.15v-.15h.3v-.15h.15v-.15h.16v-.16h.14V65h.3v-.14h.15v-.15h.15v-.14h.3v-.15h.15v-.15h.15v-.15h.3v-.15h.16v-.15h.16v-.15H41v-.16h.32v-.16h.15v-.15h.15v-.16h.3v-.15h.16v-.17h.15v-.15h.3v-.15h.15v-.15h.16v-.15h.3v-.16h.15v-.15h.14v-.15h.3v-.15h.16v-.15h.15v-.15h.3v-.16h.16v-.15h.3v-.14h.16v-.15h.15v-.14h.32v-.16h.15v-.15h.3V60h.16v-.15h.3v-.15h.15v-.16h.3v-.15h.16v-.16h.3v-.15h.15v-.16h.14v-.16h.3v-.15H48v-.15h.3v-.15h.16v-.15h.3v-.15h.15v-.16h.32v-.15h.15v-.15h.3v-.15h.15v-.15h.3v-.16h.16v-.14h.3v-.15h.15v-.14h.3v-.15h.16v-.15h.3v-.15h.15v-.15h.15v-.15h.3v-.15h.15v-.16h.3v-.16h.16v-.15h.3v-.16h.16V55h.3v-.16h.16v-.16h.3v-.15h.16v-.15h.3v-.15h.15v-.15h.3v-.16H55v-.15h.3v-.15h.14v-.15h.3v-.15h.16v-.16h.3V53h.15v-.14h.3v-.15h.16v-.14h.3v-.15h.17v-.15h.3v-.15h.15v-.15h.3v-.15h.16v-.15h.3v-.16h.15v-.16h.3v-.15h.16v-.16h.3v-.15h.14v-.17h.3v-.15H60v-.15h.3v-.15h.3v-.15h.16v-.16h.3v-.15h.16v-.15h.3v-.15h.15v-.15h.3v-.15h.16v-.16h.3v-.15h.15v-.14h.3v-.15h.3v-.14h.16v-.16h.3v-.15h.16V48h.3v-.15h.3v-.15h.16v-.16h.3v-.15H65v-.16h.32v-.15h.15v-.16h.3v-.16h.3v-.15h.16v-.15h.3v-.15h.3v-.15H67v-.15h.3v-.16h.3v-.15h.15v-.15h.3v-.15h.3v-.15h.16v-.16h.3v-.14h.3v-.15h.17v-.14h.3v-.15h.3v-.15h.16v-.15h.3v-.15h.3v-.15h.3v-.15h.16v-.16h.3v-.16h.3v-.15h.3v-.16h.15V43h.3v-.16h.3v-.16h.3v-.15h.32v-.15h.15v-.15h.3v-.15h.3v-.16h.3v-.15h.3v-.15h.32v-.15h.3v-.15h.3v-.16h.3V41h.3v-.14h.32v-.15h.3v-.14h.3v-.15h.16v-.15h.45v-.15h.3v-.15h.3v-.15h.3v-.15H79v-.16h.44v-.16h.3v-.15h.3v-.16h.3v-.15h.32v-.17h.45v-.15h.32v-.15h.45v-.15h.3v-.15h.46v-.16h.46v-.15h.3v-.15h.45v-.15h.3v-.15h.46v-.15h.62v-.16h.45v-.15h.6v-.14h.46v-.15h.6v-.14h.62v-.16h.76v-.15h.92V36h.76v-.15h2.58v-.15h.3v.15h1.37V36h1.22v.15h.45v.15h.46v.16h.46v.15h.3v.16h.45v.15h.3v.16h.3v.16h.16v.15h.3v.15h.3v.15h.16v.15h.3v.15h.15v.16h.3v.15h.16v.15h.16v.15h.15v.15h.16v.16h.15v.14h.17v.15h.15v.14h.15v.15h.15v.15h.15v.15h.15v.3h.16v.15h.15v.16h.15v.3h.15v.16h.15v.3h.15v.16h.16v.3h.14v.3h.15v.16h.14v.3h.16v.3h.15v.3h.15v.3h.15v.47h.15v.3h.15v.46h.16v.3h.16v.47h.15v.45h.16v.6h.15v.46h.17v.6h.15v.92h.15v.76h.15v1.67h.15v3.8h-.15v1.22h-.15v1.36h-.15v.77h-.15v.76h-.16v.6h-.14V60h-.15v.6h-.14v.62h-.15v.45h-.15v.46h-.15v.45h-.15v.6h-.15v.47h-.15v.45h-.16v.46h-.16v.3h-.15v.46h-.16v.3H103v.46h-.17v.3h-.15v.46h-.15v.3h-.15v.45h-.15v.3h-.15v.3h-.16v.3h-.15v.3h-.15v.47h-.15v.3h-.15v.3h-.15v.3H101v.3h-.14v.16h-.15v.3h-.14v.3h-.16v.3h-.15v.32h-.15V72h-.15v.3h-.15v.3h-.15v.16h-.16v.3h-.16v.3h-.15v.16h-.16v.3h-.15v.3h-.17v.16h-.15v.3h-.15v.15h-.15v.3h-.15v.16h-.16v.3h-.15v.15h-.15v.3h-.15v.15h-.15v.3h-.15v.16h-.16v.3h-.15V77h-.14v.16h-.15v.3h-.14v.16h-.16v.15h-.15v.3H96v.16h-.15v.15h-.15v.3h-.16v.16h-.15v.3h-.16v.15h-.15v.14h-.16v.15h-.16v.3h-.15v.15h-.15v.15h-.15v.15h-.15v.3h-.15v.16h-.16v.16h-.15v.15h-.15v.32h-.15v.15h-.15v.15h-.16v.15h-.14v.16h-.15v.3h-.14v.15h-.15v.15h-.15v.15h-.15v.16h-.15v.3h-.15v.15h-.15v.14h-.16v.16h-.16v.15h-.15V84h-.16v.15H91v.15h-.16v.3h-.16v.16h-.15v.15h-.15v.16h-.15v.16h-.15v.15h-.16v.15h-.15v.15h-.15v.15h-.15v.3h-.15v.16h-.16v.15H89v.15h-.14v.15h-.15v.16h-.14v.14h-.15v.15h-.15v.14h-.15v.15h-.15v.15h-.15v.15h-.15v.15h-.16v.15h-.16v.15h-.15v.16h-.16v.16h-.15v.15h-.17v.16h-.15V89h-.15v.16h-.15v.16h-.15v.15h-.16v.15h-.15v.15h-.15v.15h-.15v.16h-.15v.15h-.15v.15h-.16v.15h-.15v.15h-.14v.16h-.15V91h-.14v.14h-.16v.15h-.15v.14H84v.15h-.15v.15h-.15v.15h-.16v.15h-.15v.15h-.16v.15h-.15v.16h-.32v.16h-.15v.15h-.15v.16h-.15v.15h-.15v.17h-.15v.15h-.16v.15h-.15v.15h-.15v.15h-.15v.16h-.3v.15h-.16v.15h-.15v.15h-.14v.15h-.15v.15h-.15v.16h-.15v.15h-.15v.14h-.3v.15h-.16v.14h-.16v.16h-.15v.15h-.16V96H79v.15h-.16v.15h-.3v.16h-.16v.15h-.15v.16h-.15v.15h-.16v.16h-.3v.16h-.15v.15h-.15v.15h-.16v.15H77v.15h-.3v.15h-.14v.16h-.15v.15h-.15v.15h-.15v.15h-.3v.15h-.15v.16h-.16v.14h-.16v.15h-.3v.14h-.15v.15h-.17v.15h-.15v.15h-.3v.15h-.15v.15h-.16v.15h-.15v.16h-.3v.16h-.15v.15h-.15v.16h-.16v.15h-.3v.17h-.15v.15h-.14v.15h-.3v.15H72v.15h-.15v.15h-.3v.16h-.16v.15h-.16v.15h-.3v.15h-.16v.15h-.15v.15h-.3v.16h-.15v.14h-.15v.15h-.3v.14h-.16v.16h-.15v.15h-.3v.15h-.16v.15h-.3v.15h-.15v.15h-.15v.16h-.3v.16h-.15v.15h-.3v.16h-.16v.15h-.3v.17H67v.15h-.16v.15h-.3v.15h-.16v.15h-.3v.16h-.16v.15h-.3v.15h-.15v.15h-.3v.15H65v.16h-.3v.14h-.14v.15h-.3v.14h-.16v.15h-.3v.14h-.15v.16h-.3v.15h-.3v.15h-.16v.15h-.32v.15h-.15v.16h-.3v.15h-.3v.16h-.16v.15h-.3v.16h-.15v.16h-.3v.15h-.3v.15h-.32v.15h-.15v.15h-.3v.16h-.3v.15h-.16v.15h-.3v.15h-.32v.15h-.3v.15h-.15v.16h-.3v.14h-.3v.15h-.3v.14h-.32v.15h-.3v.15h-.14v.15h-.3v.15h-.3v.15h-.3v.15h-.32v.16h-.3v.16h-.3v.15h-.3v.16h-.3v.15h-.47v.17h-.3v.15h-.3v.15h-.3v.15h-.3v.15h-.47v.15h-.3v.16h-.46v.15h-.3v.15h-.46v.15h-.45v.15h-.3v.15h-.6v.16h-.47v.14h-.46v.15h-.6v.14h-.76v.16h-1.07v.15h-1.52v-.16h-.6v-.16h-.46v-.15H43v-.16h-.32V115h-.15v-.17h-.15v-.15h-.15v-.15h-.15v-.3h-.16v-.3h-.15v-.3h-.15v-.46h-.15v-1.52h.15v-.76h.15v-.47h.15v-.46h.16v-.3h.15v-.3h.15v-.3h.15v-.3h.15v-.3h.16v-.32H43V108h.14v-.3h.15v-.3h.14v-.16h.15v-.3h.15v-.16h.15v-.3h.15v-.15h.15v-.3h.15v-.16h.16v-.15h.16v-.3h.15v-.15h.16v-.16h.15v-.3h.17v-.14h.15v-.15h.15v-.3h.15v-.15h.15v-.15h.16v-.15h.15v-.16h.15v-.3h.15v-.16h.15V103h.15v-.17h.16v-.15h.15v-.15h.14v-.3h.15v-.15h.14v-.16h.16v-.15h.15v-.15H48v-.15h.15v-.15h.15v-.15h.16V101h.15v-.14h.16v-.3h.15v-.16h.16v-.15h.16v-.15h.15v-.15h.15v-.15h.15v-.15h.15v-.16h.15v-.16h.16v-.15h.15v-.16h.15v-.15h.15v-.17h.15v-.15h.16v-.15h.14v-.15h.15v-.15h.14v-.16h.15v-.15h.15v-.15h.15v-.15h.15v-.15h.15v-.15h.15v-.16h.16v-.15h.16v-.14h.15v-.15h.16v-.14H53v-.16h.16v-.15h.16V96h.15v-.15h.15v-.15h.15v-.16h.15v-.15h.16v-.16h.15v-.15h.15v-.16h.15v-.16h.15v-.15h.16v-.15H55v-.15h.14v-.15h.15v-.15h.14v-.16h.15v-.15h.15v-.15h.15v-.15h.15v-.15h.15v-.16h.15v-.14h.16v-.15h.16v-.14h.15v-.15h.3v-.15h.17v-.3h.15v-.15h.15v-.15h.15v-.16h.15v-.16h.16v-.15h.15v-.16h.15V91h.15v-.16h.15v-.16h.15v-.15h.16v-.3h.15v-.15h.14v-.16h.15v-.15h.14v-.15h.16v-.15h.15v-.3H60V89h.15v-.14h.15v-.3h.16v-.15h.15v-.15h.16v-.15h.15v-.3h.16v-.15h.16v-.3h.15v-.16h.15v-.3h.15v-.32h.15v-.15h.15v-.3h.16v-.3h.15v-.16h.15v-.45h.15v-.46h.15v-.46h.16V84h.14v-2.28h-.15v-.6h-.17v-.46h-.15v-.15h-.15v-.3h-.15v-.15h-.15v-.3h-.16v-.16h-.15v-.16h-.15v-.15h-.15v-.16h-.15V79h-.15v-.16h-.16v-.16h-.15v-.15h-.3v-.15h-.14v-.15h-.3v-.15H60v-.16h-.3v-.15h-.3v-.15h-.3v-.15h-.32v-.15h-.45v-.16h-.46V77h-.3v-.14h-.46v-.15h-.75v-.14h-.6v-.15h-.9v-.15h-1.38v-.15h-.15v.15h-2.74v.16h-.9v.16h-.77v.15h-.44v.16H48V77h-.6v.16h-.46v.16h-.3v.15h-.3v.15h-.3v.15h-.47v.15h-.3v.16h-.3v.15h-.3v.15h-.32v.15h-.15v.15h-.3v.16h-.15V79h-.3v.14h-.16v.15H43v.14h-.16v.15h-.16v.15h-.3v.15h-.15v.15h-.3v.15h-.16v.15h-.15v.16h-.15v.16h-.15v.15h-.16v.16h-.3v.15h-.15v.17h-.14v.15h-.15v.15h-.15v.15h-.15v.15h-.15v.16h-.15v.15h-.15v.15h-.16v.15h-.16v.15h-.15v.15h-.16v.16h-.15v.15h-.17v.14h-.15v.3h-.15v.16h-.15v.15h-.15V84h-.16v.15h-.15v.3h-.15v.16h-.15v.16h-.15v.15h-.15v.16h-.16v.16h-.15v.3h-.14v.15h-.15v.3h-.14v.16h-.16v.3h-.15v.15H36v.3h-.15v.16h-.15v.3h-.16v.15h-.15v.3h-.16v.15h-.15v.3h-.16v.16h-.16v.3h-.15v.16h-.15v.3h-.15v.3h-.15v.3h-.15v.32h-.16v.3h-.15v.3h-.15v.3h-.15v.16h-.15v.3h-.16v.3h-.14v.3h-.15v.3h-.14v.32h-.15v.3h-.15v.3h-.15v.3h-.15v.3h-.15v.47h-.15v.3h-.16v.3h-.16v.46h-.15v.3h-.16v.3H31v.46h-.16v.3h-.16v.3h-.15v.46h-.15v.3h-.15v.46h-.15v.45h-.16v.46h-.15v.45h-.15v.6h-.15v.46h-.15v.47h-.16v.6H29v1.06h-.14v1.07h-.15v1.2h-.14v.17h.15v3.03h.16v.6H29v.62h.16v.76h.16v.6h.15v.3h.15v.3h.15v.47h.15v.3h.16v.3h.15v.3h.15v.32h.15v.3h.15v.15h.16v.3H31v.16h.14v.3h.15v.15h.14v.15h.15v.3h.15v.16h.15v.15h.15v.3h.3v.15h.16v.15h.16v.15h.15v.15h.16v.15h.15v.16h.17v.16h.15v.15h.15v.16h.15v.15h.15v.17h.3v.15h.16v.15h.3v.15h.15v.15h.3v.16h.16v.15h.3v.15h.16v.15h.3v.15h.3v.16h.3v.14h.3v.15h.47v.14h.45v.15h.46v.14h.76v.16h.9v.15h1.53v.15h2.43v-.15h1.82v-.15h1.06v-.16h.92v-.15h.76v-.16h.76v-.15h.6v-.16h.6v-.16h.62v-.15h.45v-.15h.45v-.15h.6v-.15h.46v-.16h.47v-.15h.45v-.15h.46v-.15h.3v-.15h.46v-.15h.45v-.16h.3v-.14h.45v-.15h.3v-.14h.46v-.15h.32v-.15h.45v-.15h.3v-.15h.3v-.15h.3v-.15h.47v-.16h.3v-.16h.3v-.15h.3v-.16h.32V115h.3v-.17h.3v-.15h.46v-.15h.3v-.15h.3v-.15h.3v-.15h.3v-.16h.17v-.15h.3v-.15h.3v-.15h.3v-.15h.3v-.15h.3V113h.3v-.14h.3v-.15h.16v-.14h.3v-.16h.3v-.15h.32v-.15h.3v-.15h.15v-.15h.3v-.15h.3v-.16h.3v-.16h.16v-.15h.3v-.16h.3v-.15h.15v-.17h.3v-.15h.3v-.15h.16v-.15h.32v-.15h.3v-.16h.15v-.15h.3v-.15h.16v-.15h.3v-.15h.3v-.16h.16v-.14h.3v-.15h.14v-.14h.3v-.15h.3v-.14h.16v-.16h.3v-.15h.16V108h.3v-.15h.16v-.15h.3v-.16h.15v-.15h.3v-.16h.16v-.15h.3v-.16h.15v-.16h.3v-.15h.16v-.15h.3v-.15h.15v-.15h.15v-.16h.3v-.15h.15v-.15h.3v-.15h.16v-.15h.3v-.15H77v-.16h.32v-.14h.15v-.15h.15v-.14h.3v-.15h.16v-.15h.15v-.15h.3v-.15h.15v-.15h.3v-.15h.16v-.16h.15v-.16h.3v-.15h.15v-.16h.15V103h.3v-.17h.15v-.15h.3v-.15h.16v-.15h.16v-.15h.3v-.15h.16v-.16h.15v-.15h.3v-.15h.16v-.15h.15v-.15h.15v-.15h.3V101h.15v-.14h.16v-.15h.3v-.14h.15v-.16h.14v-.15h.3v-.15H84v-.15h.15v-.15h.15v-.15h.3v-.16h.16v-.16h.15v-.15h.32v-.16h.15v-.15h.15v-.17h.15v-.15h.3v-.15h.16v-.15h.15v-.15h.15v-.16h.3v-.15h.16v-.15h.14v-.15h.15v-.15h.3v-.15h.15v-.16h.15v-.15h.15v-.14h.15v-.15h.3v-.14h.16v-.16h.15v-.15h.16V96h.3v-.15h.16v-.15h.15v-.16h.15v-.15h.15v-.16h.3v-.15h.16v-.16h.15v-.16h.15v-.15h.15v-.15h.3v-.15h.16v-.15h.15v-.15h.14v-.16h.15v-.15h.15v-.15h.3v-.15h.15v-.15h.15v-.16h.16v-.14h.16v-.15h.15v-.14h.3v-.15h.17v-.15h.15v-.15h.15v-.15h.15v-.15h.15v-.15h.16v-.16h.3v-.16h.15v-.15h.15v-.16h.15V91h.16v-.16h.15v-.16h.14v-.15h.15v-.15h.14v-.15h.3v-.15H96v-.16h.15v-.15h.15v-.15h.16v-.15h.15v-.15h.16v-.16h.15V89h.16v-.14h.16v-.15h.15v-.14h.15v-.15h.15v-.15h.15v-.15h.15v-.15h.16v-.15h.15v-.15h.15v-.16h.15v-.16h.15v-.15h.16v-.16h.14v-.15h.15v-.17h.14v-.15h.15v-.15h.15v-.15h.15v-.15h.15v-.16h.15v-.15h.15v-.15h.16v-.15h.16v-.15h.15v-.15h.16v-.16h.15v-.15h.17v-.14h.15v-.3h.15v-.16h.15v-.15h.15V84h.15v-.15h.16v-.15h.15v-.16h.15v-.15h.15v-.16h.15v-.15h.15v-.32h.16v-.15h.14v-.15h.15v-.15h.14v-.15h.16v-.15h.15v-.3h.15v-.16h.15v-.15h.15v-.15h.15v-.16h.16v-.14h.16v-.3h.15v-.15h.16v-.15h.15v-.15h.17v-.15h.15v-.3h.15v-.16h.15v-.16h.15v-.3h.16V79h.15v-.16h.15v-.16h.15v-.3h.15v-.15h.16v-.15h.14v-.16h.15v-.3h.14v-.15h.15v-.15h.14v-.3h.16v-.16h.15v-.15h.15v-.3h.15v-.15h.15v-.15h.16v-.3h.15v-.15h.16v-.3h.15v-.16h.16v-.16h.16v-.3h.15v-.16h.15v-.3h.15v-.15h.15v-.16h.16v-.3h.15v-.15h.15v-.3h.15v-.16h.15v-.3h.15v-.15h.16v-.3h.14v-.15h.15v-.3h.14v-.15h.15v-.3h.15v-.16h.15v-.3h.15v-.3h.15v-.16h.15v-.3h.16v-.15h.16v-.3h.15v-.3h.16v-.16h.15v-.3h.17v-.3h.15v-.16h.15v-.3h.15v-.3h.15v-.15h.15v-.3h.16v-.3h.15v-.3h.15v-.17h.15v-.3h.15v-.3h.15v-.3h.16v-.3h.14v-.32h.15v-.3h.14v-.15h.16v-.3h.15v-.3h.15v-.3h.15v-.3h.15v-.3h.15v-.3h.16v-.32h.16v-.3h.15v-.3h.16v-.46h.15v-.3h.17v-.3h.15v-.3h.15v-.32h.15V60h.15v-.3h.16v-.46h.15v-.3h.15v-.46h.15v-.3h.15v-.46h.16v-.3h.14v-.46h.15v-.3h.14v-.46h.15v-.3h.14v-.46h.16V55h.15v-.47h.15v-.45h.15v-.46h.15v-.46h.16v-.45h.15v-.45h.16v-.45h.15v-.6h.16v-.62h.16v-.45h.15v-.6h.15v-.62h.15v-.6h.15v-.76h.16v-.76h.15v-.75h.15v-.76h.15v-.92h.15v-1.2h.15V41.9h.16v-1.97h.14v-4.7h-.15v-2.9h-.17v-1.2h-.15v-.92h-.15v-.9h-.15v-.92h-.15v-.9h-.16v-.77h-.15v-.45h-.15v-.46h-.15v-.6h-.15v-.46h-.16v-.46h-.14v-.6h-.15v-.46h-.14v-.46h-.15v-.45h-.14v-.3h-.16v-.3h-.15v-.46H120v-.3h-.15v-.3h-.15v-.32h-.16v-.45h-.15v-.3h-.16v-.3h-.15V19h-.16v-.32h-.16v-.3h-.15v-.3h-.15v-.16h-.15v-.3h-.15v-.15h-.16v-.3h-.15v-.3h-.15v-.16h-.15v-.3h-.15v-.3h-.15v-.15h-.16v-.3h-.14v-.16h-.15v-.3h-.14v-.16h-.15v-.15h-.15v-.32h-.15v-.15h-.15v-.15h-.15v-.15h-.15v-.3h-.16v-.16h-.16v-.15h-.15v-.15h-.16v-.3H115v-.16h-.17v-.14h-.15v-.15h-.15v-.14h-.15v-.3h-.15V12h-.15v-.15h-.16v-.15h-.15v-.16h-.15v-.15h-.15v-.16h-.3v-.15H113v-.16h-.14v-.16h-.15v-.15h-.14v-.15h-.16v-.15h-.15v-.15h-.15v-.15h-.15v-.16h-.15v-.15h-.15v-.15h-.16v-.15h-.16v-.15h-.3V9.1h-.15v-.14h-.17V8.8h-.3v-.14h-.15V8.5h-.15v-.15h-.3V8.2h-.16v-.15h-.15V7.9h-.3v-.15h-.16V7.6h-.15v-.16h-.14V7.3h-.3v-.16h-.3V7H108v-.16h-.3v-.16h-.3v-.15h-.16v-.15h-.3v-.15h-.16v-.15h-.3v-.16h-.3v-.15h-.16v-.15h-.3v-.15h-.3v-.15h-.3v-.16h-.3V5h-.3v-.14h-.32V4.7h-.3v-.14h-.3V4.4h-.3v-.15h-.3V4.1h-.32v-.15h-.3V3.8h-.46v-.15h-.3V3.5h-.45v-.16h-.3V3.2h-.47v-.16h-.45V2.9h-.3v-.17h-.46v-.15h-.47v-.15h-.45v-.15h-.46v-.15h-.6v-.16h-.46v-.15h-.46v-.15h-.6v-.15h-.6v-.15h-.62v-.15h-.76v-.16h-.6V.9h-.77V.77h-.9V.6h-.92V.47h-.9V.3h-1.38V.15H86.9V0h-7.46zM42.23 109.06v.3h.15v-.3h-.15zm-.15.3v.3h.15v-.3h-.15zm-.16.3v.3h.16v-.3h-.16zm-.15.47v.3h.15v-.3h-.15zm-.15.45v.3h.15v-.3h-.15zm-.15.76v.3h.15v-.3h-.15zM42.38 108.76v.3h.15v-.3h-.15zM43.44 106.78v.3h.16v-.3h-.16zM43.44 106.94v.15h-.15v.14h-.16v.3H43v.3h-.16v.16h-.16v.3h-.15v.3h-.15v.3h.15v-.14h.15v-.3h.16v-.3H43V108h.14v-.3h.15v-.3h.14v-.16h.15v-.3h-.16zM42.23 108.9v.3h.15v-.14h.15v-.15h-.3z"/></g><defs><clipPath id="a"><path fill="#fff" d="M0 0h361.27v120H0z"/></clipPath></defs></svg>