<svg xmlns="http://www.w3.org/2000/svg" width="65" height="47"><title>мmmc</title><desc>Created with Sketch.</desc><g id="Page-1" fill="none"><g fill-rule="nonzero"><g id="Page-1"><g id="Group"><g><g><g><path id="Shape" fill="#fff" d="M9 46.57v-1.5c.03-.25-.06-.5-.24-.68-.18-.2-.43-.3-.68-.27-.34-.02-.66.14-.84.42-.16-.27-.47-.44-.8-.42-.27-.02-.53.12-.68.35v-.3h-.52v2.4h.52v-1.34c-.02-.16.03-.33.14-.45.1-.14.28-.2.44-.2.35 0 .52.23.52.64v1.32h.53v-1.32c-.04-.16.02-.33.13-.45.1-.13.27-.2.44-.2.35 0 .52.23.52.64v1.32H9zm2.93-1.2V44.2h-.52v.28c-.17-.23-.45-.36-.74-.35-.7 0-1.25.56-1.25 1.25 0 .68.57 1.24 1.26 1.24.3 0 .57-.12.75-.35v.3h.52v-1.2zm-1.93 0c.03-.38.36-.68.75-.67.4.02.7.34.7.73 0 .4-.33.7-.72.7-.2.02-.4-.06-.54-.2-.15-.15-.22-.35-.2-.55zm13-1.24c.18 0 .35.03.5.1.16.06.3.15.42.26.1.1.2.24.27.4.12.3.12.67 0 1-.07.14-.17.27-.28.38-.12.12-.26.2-.4.27-.34.13-.7.13-1.03 0-.16-.06-.3-.15-.4-.27-.13-.1-.22-.24-.28-.4-.13-.3-.13-.67 0-1 .06-.14.15-.27.27-.4.1-.1.24-.2.4-.25.15-.07.33-.1.5-.1zm0 .5c-.1 0-.2.02-.3.06-.08.02-.16.07-.23.14s-.12.16-.15.25c-.08.2-.08.4 0 .6.03.1.08.2.15.26.07.07.15.12.24.16.2.07.4.07.6 0 .1-.04.18-.1.25-.16.07-.07.12-.16.16-.25.08-.2.08-.4 0-.6-.03-.1-.08-.2-.15-.26-.07-.07-.16-.12-.25-.15-.1-.06-.2-.08-.3-.08zm-8.25.75c0-.75-.47-1.25-1.13-1.25-.7 0-1.24.58-1.23 1.27 0 .68.56 1.23 1.25 1.22.36.02.7-.1.98-.33l-.25-.4c-.2.16-.44.25-.7.26-.35.03-.67-.23-.7-.6h1.76c0-.05 0-.1 0-.18zm-1.78-.2c.02-.34.3-.6.64-.6.16 0 .3.07.43.17.1.1.18.26.18.42h-1.23zm3.96-.38c-.23-.14-.5-.2-.75-.2-.3 0-.45.1-.45.27s.17.2.4.23l.25.04c.52.07.83.3.83.7 0 .43-.4.8-1.07.8-.37 0-.73-.1-1.03-.32l.25-.4c.23.17.5.25.8.25.34 0 .53-.1.53-.3 0-.13-.13-.2-.42-.24L16 45.6c-.52-.08-.8-.32-.8-.7 0-.48.38-.77 1-.77.33 0 .67.07.96.25l-.23.42zm2.5-.14h-.86v1.08c0 .25.1.4.35.4.16 0 .32-.05.46-.14l.15.45c-.2.12-.42.18-.65.18-.6 0-.83-.33-.83-.88v-1.08h-.48v-.48h.48v-.73h.52v.72h.85v.46zm1.78-.53c.14 0 .26.02.38.06l-.16.5c-.1-.05-.2-.07-.32-.07-.34 0-.5.22-.5.6v1.35h-.52V44.2h.5v.3c.14-.24.38-.37.64-.36zm3.6 2.1c.03 0 .06 0 .1 0 .02.02.05.03.07.06.02 0 .04.03.05.06.03.06.03.13 0 .18 0 .03-.03.06-.05.08-.02.02-.05.04-.08.05-.04 0-.07.02-.1.02-.1 0-.2-.07-.23-.16-.02-.05-.02-.12 0-.18 0-.03.03-.05.05-.07.03-.04.05-.05.08-.06.03 0 .06-.02.08-.02h.02zm0 .4c.02 0 .05 0 .07 0 .02 0 .04-.03.06-.05.04-.04.06-.1.05-.16-.02-.06-.06-.1-.1-.13-.03-.02-.06-.03-.08-.03-.03 0-.05 0-.08.02-.02 0-.04 0-.06.03-.06.07-.06.17 0 .24.04.04.1.06.14.06zm0-.3c.03 0 .06.02.08.03 0 .02.02.04.02.06 0 0 0 .03-.02.04 0 0-.03.02-.05.02l.07.08h-.06l-.06-.08h-.03v.08h-.04v-.2l.1-.02zm-.04.06v.05h.05c.02 0 .03 0 .04 0 0 0 0-.02 0-.03 0 0 0 0 0-.02 0 0-.02 0-.03 0h-.04z"/><g><path id="Rectangle-path" fill="#7673C0" d="M10.82 26.03h7.85v14.1h-7.85z"/><path fill="#EB001B" d="M11.32 33.08c0-2.75 1.26-5.35 3.43-7.05-3.68-2.9-8.97-2.47-12.14.97-3.17 3.43-3.17 8.73 0 12.17 3.18 3.44 8.47 3.86 12.15.97-2.17-1.7-3.43-4.3-3.43-7.06z"/><path id="Shape" fill="#00A1DF" d="M29.26 33.08c0 3.44-1.96 6.57-5.05 8.07-3.08 1.5-6.75 1.1-9.45-1 2.16-1.7 3.42-4.32 3.42-7.07s-1.26-5.35-3.42-7.05c2.7-2.13 6.37-2.52 9.46-1.02 3.1 1.5 5.06 4.64 5.06 8.08z"/></g></g><g><g><path fill="#fff" d="M40.54 46.96v-1.53c0-.58-.35-.96-.94-.96-.3 0-.63.1-.86.43-.18-.28-.43-.43-.82-.43-.25 0-.53.07-.73.35v-.3h-.5v2.44h.5v-1.4c0-.43.24-.64.6-.64.35 0 .56.23.56.64v1.4h.48v-1.4c0-.43.25-.64.6-.64.37 0 .57.23.57.64v1.4h.54zm7.93-2.42h-.9v-.73h-.47v.74h-.5v.43h.5v1.15c0 .56.2.9.82.9.22 0 .48-.1.66-.2l-.16-.42c-.15.1-.33.13-.45.13-.26 0-.4-.16-.4-.4v-1.18h.9v-.4zm4.53-.07c-.3 0-.53.15-.66.35v-.3h-.48v2.44h.48v-1.38c0-.4.2-.66.53-.66.1 0 .23.03.33.05l.16-.45c-.1-.03-.26-.05-.36-.05zm-6.84.25c-.25-.18-.6-.25-1-.25-.6 0-.98.28-.98.76 0 .4.28.63.8.7l.27.04c.28.05.45.15.45.28 0 .17-.2.3-.58.3-.38 0-.64-.13-.8-.25l-.27.38c.36.25.8.3 1.04.3.7 0 1.1-.33 1.1-.8 0-.42-.32-.62-.85-.7l-.26-.02c-.24-.03-.44-.1-.44-.26 0-.17.2-.3.48-.3.3 0 .6.13.77.2l.26-.38zm7.37 1.02c0 .73.5 1.27 1.28 1.27.36 0 .62-.07.87-.27l-.25-.38c-.2.15-.4.23-.64.23-.43 0-.76-.33-.76-.82 0-.48.33-.8.76-.8.23 0 .43.07.64.22l.25-.38c-.25-.2-.5-.28-.86-.28-.76-.05-1.27.48-1.27 1.22zm-3.4-1.27c-.7 0-1.2.5-1.2 1.27 0 .76.5 1.27 1.25 1.27.35 0 .7-.1 1-.32l-.26-.36c-.2.15-.46.26-.72.26-.33 0-.68-.2-.73-.64h1.8v-.2c0-.77-.46-1.27-1.14-1.27zm-.03.45c.36 0 .6.23.64.6h-1.32c.07-.34.3-.6.68-.6zm-6.58.82v-1.22h-.5v.3c-.16-.23-.42-.35-.77-.35-.7 0-1.2.53-1.2 1.27 0 .73.5 1.27 1.2 1.27.35 0 .6-.12.78-.35v.3h.5v-1.2zm-1.96 0c0-.46.28-.82.76-.82.46 0 .74.36.74.82 0 .48-.3.8-.74.8-.48.04-.76-.35-.76-.8zm18.8-1.27c-.32 0-.55.15-.67.35v-.3h-.5v2.44h.5v-1.38c0-.4.2-.66.52-.66.1 0 .23.03.33.05l.15-.45c-.1-.03-.25-.05-.35-.05zm-1.9 1.27v-1.22H58v.3c-.17-.23-.43-.35-.8-.35-.67 0-1.18.53-1.18 1.27 0 .73.5 1.27 1.2 1.27.35 0 .6-.12.78-.35v.3h.5v-1.2zm-1.95 0c0-.46.3-.82.77-.82.46 0 .74.36.74.82 0 .48-.3.8-.73.8-.48.04-.76-.35-.76-.8zm6.87 0v-2.2h-.48v1.28c-.2-.23-.44-.35-.8-.35-.68 0-1.2.53-1.2 1.27 0 .73.52 1.27 1.2 1.27.36 0 .6-.12.8-.35v.3h.47v-1.2zm-1.95 0c0-.46.27-.82.76-.82.46 0 .74.36.74.82 0 .48-.3.8-.74.8-.5.04-.76-.35-.76-.8z"/><g><path fill="#FF5F00" d="M45.6 26h8.82v14.4H45.6z"/><path fill="#EB001B" d="M46.5 33.2c0-2.92 1.36-5.5 3.47-7.2-1.55-1.2-3.5-1.95-5.64-1.95-5.06 0-9.15 4.1-9.15 9.15 0 5.06 4.1 9.16 9.15 9.16 2.14 0 4.1-.74 5.64-1.96-2.1-1.68-3.48-4.27-3.48-7.2z"/><path fill="#F79E1B" d="M64.8 33.2c0 5.06-4.1 9.16-9.16 9.16-2.13 0-4.1-.74-5.64-1.96 2.14-1.68 3.48-4.27 3.48-7.2 0-2.92-1.37-5.5-3.48-7.2 1.55-1.2 3.5-1.95 5.64-1.95 5.06 0 9.16 4.1 9.16 9.15z"/></g></g></g></g><g><path fill="#fff" d="M18 19.06h30V0H18z"/><path fill="#F8B600" d="M18.5 18.56h29v-2.6h-29z"/><path fill="#1A1F71" d="M18.5 3.1h29V.5h-29z"/><path fill="#1A1F71" d="M32.75 5.96l-1.53 7.15h-1.85l1.53-7.14h1.85zm7.78 4.62l.97-2.68.56 2.68h-1.53zm2.06 2.53h1.7l-1.5-7.14h-1.57c-.35 0-.65.2-.8.53l-2.76 6.6h1.94l.4-1.06h2.37l.22 1.07zm-4.83-2.32c0-1.9-2.6-2-2.6-2.84 0-.25.26-.52.8-.6.25-.03.98-.06 1.8.33l.34-1.52c-.44-.16-1-.32-1.72-.32-1.83 0-3.12.97-3.13 2.37 0 1.02.92 1.6 1.62 1.94.72.35.96.58.96.9 0 .47-.57.68-1.1.7-.94 0-1.47-.26-1.9-.46l-.34 1.56c.42.2 1.22.37 2.05.38 1.94 0 3.2-.96 3.22-2.44zM30.1 5.96l-3 7.15h-1.94l-1.48-5.7c-.1-.34-.16-.47-.44-.62-.44-.24-1.17-.47-1.82-.6l.04-.22h3.15c.4 0 .77.27.86.73l.78 4.13 1.93-4.87h1.94z"/></g></g></g></g></g></g></svg>