<svg width="96" height="66" xmlns="http://www.w3.org/2000/svg"><g fill="#259EFA"><path d="M49.272 4.848C44.437 1.99 38.888.5 33 .5 15.02.5.5 15.02.5 33S15.02 65.5 33 65.5c5.75 0 11.288-1.515 16.235-4.326l-2.47-4.348C42.558 59.216 37.868 60.5 33 60.5 17.78 60.5 5.5 48.22 5.5 33S17.78 5.5 33 5.5c5 0 9.67 1.255 13.728 3.652l2.544-4.304z"/><path d="M49.272 9.152C53.33 6.755 57.999 5.5 63 5.5c15.22 0 27.5 12.28 27.5 27.5S78.22 60.5 63 60.5c-4.868 0-9.558-1.283-13.765-3.674l-2.47 4.348C51.712 63.984 57.25 65.5 63 65.5c17.98 0 32.5-14.52 32.5-32.5S80.98.5 63 .5c-5.888 0-11.437 1.49-16.272 4.348l2.544 4.304z"/><path d="M45.869 57.644a225 225 0 001.411-.003c.12-.002.12-.003.12-.006V57.6h-1.5l-.872 1.22c.638.456 1.135.758 2.228 1.382l.744.426.744-.426c.322-.184.57-.338 1.117-.69.503-.323.722-.46.983-.61l-1.488-2.604c-.322.184-.57.338-1.117.69l-.26.167c-.328.21-.512.322-.723.443L48 58.9l.744-1.302c-.3-.172-.549-.316-.765-.443-.51-.3-.836-.51-1.207-.776L44.4 54.685v2.96l1.47-.003c.87-.002 1.245-.004 1.407-.008.123-.002.123-.006.123-.012V57.6h-3v.044h1.469zm9.291-2.284a31.964 31.964 0 003.561-4.21l-2.454-1.725a28.97 28.97 0 01-3.228 3.814l2.122 2.122zm6.322-9.006a31.905 31.905 0 001.893-5.18l-2.895-.785a28.906 28.906 0 01-1.715 4.692l2.717 1.273zm2.868-10.637c.098-.981.15-1.864.15-2.714 0-.923-.05-1.867-.144-2.832l-2.986.293c.086.871.13 1.717.13 2.538 0 .741-.046 1.527-.135 2.416l2.985.3zm-.951-10.96a30.205 30.205 0 00-1.902-5.193l-2.712 1.284a27.205 27.205 0 011.714 4.677l2.9-.768zm-4.699-9.96a31.918 31.918 0 00-3.597-4.18l-2.101 2.141a28.923 28.923 0 013.26 3.786l2.438-1.746zM45.448 6.861l-.24.188c-.065.05-.108.082-.14.103l1.664 2.496c.102-.068.198-.138.314-.228l.231-.181a1.9 1.9 0 01.294-.197l.12-.06.109-.082.157-.116c.123.074.249.143.381.211.088.06.195.136.39.276.277.197.396.281.54.377l1.664-2.496a17.399 17.399 0 01-.46-.323 19.252 19.252 0 00-.54-.377l-.161-.094c-.285-.142-.504-.283-.871-.558l-.742-.556-.829.414a7.81 7.81 0 00-1.23.769 4.903 4.903 0 00-.651.434zM40.84 10.64a31.98 31.98 0 00-3.536 4.23l2.454 1.727a28.992 28.992 0 013.203-3.836l-2.122-2.122zm-6.32 9.003a30.175 30.175 0 00-1.869 5.205l2.905.75c.415-1.608.98-3.18 1.683-4.689l-2.72-1.266zm-2.795 10.625c-.082.895-.125 1.77-.125 2.627 0 1.046.04 1.99.131 2.912l2.986-.293a26.655 26.655 0 01-.004-4.97l-2.988-.276zm1.04 10.957a31.849 31.849 0 001.92 5.17l2.71-1.286a28.85 28.85 0 01-1.738-4.683l-2.891.799zm4.75 9.963a33.09 33.09 0 003.585 4.18l2.11-2.133a30.094 30.094 0 01-3.26-3.8l-2.434 1.753z"/><path d="M46.9 8.7h1v-2h-1zm1.2 0h1v-2h-1zm4.5 8h-2.06v2h2.06v-2zm-7.212 0h-2.06v2h2.06v-2zm10.912 10h-2.08v2h2.08v-2zm-7.282 0h-2.08v2h2.08v-2zm-7.282 0h-2.081v2h2.08v-2zm14.664 10h-2.098v2H56.4v-2zm-7.342 0H46.96v2h2.098v-2zm-7.342 0h-2.098v2h2.098v-2zm11.084 10h-2.142v2H52.8v-2zm-7.495 0h-2.142v2h2.142v-2zm4.795 10h-1v2h1zm-3.2 0h-1v2h1z"/></g></svg>