<svg xmlns="http://www.w3.org/2000/svg" width="170" height="154"><g fill="none" fill-rule="nonzero"><g transform="translate(0 77.917)"><circle cx="37.778" cy="37.778" r="37.778" fill="#627EEA"/><g fill="#FFF"><path fill-opacity=".602" d="M38.95 9.44V30.4l17.7 7.9z"/><path d="M38.95 9.44L21.25 38.3l17.7-7.91z"/><path fill-opacity=".602" d="M38.95 51.87V66.1l17.72-24.5z"/><path d="M38.95 66.1V51.87l-17.7-10.28z"/><path fill-opacity=".2" d="M38.95 48.58l17.7-10.28-17.7-7.9z"/><path fill-opacity=".602" d="M21.25 38.3l17.7 10.28V30.39z"/></g></g><g transform="translate(94.444 77.917)"><circle cx="37.778" cy="37.778" r="37.778" fill="#00AAE4"/><path fill="#FFF" d="M51.85 42.98a10.94 10.94 0 00-5.28-1.3c-1.53-.06-3.8-1.06-3.8-3.9a3.9 3.9 0 013.8-3.9c1.82-.06 3.65-.35 5.28-1.3a9.98 9.98 0 004.24-11.92 9.6 9.6 0 00-10.72-6.34 9.8 9.8 0 00-7.96 9.71c0 1.91.67 3.67 1.51 5.3.71 1.37 1.07 3.92-1.37 5.36-1.82 1.08-4.08.4-5.22-1.46a11.19 11.19 0 00-3.72-4 9.47 9.47 0 00-12.2 2.2c-3 3.7-3 9 0 12.69 3.01 3.66 8.15 4.6 12.2 2.2a11.19 11.19 0 003.73-4c.78-1.28 2.74-2.92 5.21-1.46a4.02 4.02 0 011.37 5.37 11.5 11.5 0 00-1.51 5.3 9.8 9.8 0 007.96 9.7 9.6 9.6 0 0010.72-6.33 9.98 9.98 0 00-4.24-11.92z"/></g><g transform="translate(47.222)"><circle cx="37.778" cy="37.778" r="37.778" fill="#F7931A"/><path fill="#FFF" d="M54.75 33.1c.74-4.95-3.03-7.6-8.18-9.38l1.67-6.7L44.16 16l-1.63 6.52c-1.07-.26-2.17-.51-3.27-.76l1.64-6.58-4.08-1.01-1.67 6.7c-.89-.2-1.76-.4-2.6-.61v-.03l-5.63-1.4-1.08 4.36s3.02.7 2.96.74c1.65.4 1.95 1.5 1.9 2.37l-1.9 7.64c.11.03.26.07.42.13l-.43-.1-2.67 10.7c-.2.5-.71 1.25-1.87.97.04.05-2.96-.74-2.96-.74l-2.03 4.67 5.31 1.32c.99.25 1.96.5 2.9.75l-1.68 6.78 4.08 1.02 1.67-6.7c1.11.3 2.2.57 3.25.84l-1.66 6.67 4.08 1.02 1.68-6.77c6.97 1.32 12.2.79 14.4-5.5 1.78-5.07-.09-8-3.75-9.9 2.67-.62 4.68-2.37 5.21-6zm-9.32 13.08c-1.26 5.07-9.8 2.33-12.57 1.64l2.25-8.98c2.76.69 11.64 2.05 10.32 7.34zm1.26-13.15c-1.15 4.61-8.25 2.27-10.56 1.7l2.03-8.15c2.3.57 9.73 1.64 8.53 6.45z"/></g></g></svg>