<svg width="109" height="28" viewBox="156 6 109 28" xmlns="http://www.w3.org/2000/svg" xmlns:xlink="http://www.w3.org/1999/xlink"><defs><linearGradient x1="91.488%" y1="4.948%" x2="-38.352%" y2="71.907%" id="e"><stop stop-color="#00A0FF" offset="0%"/><stop stop-color="#00A1FF" offset="1%"/><stop stop-color="#00BEFF" offset="26%"/><stop stop-color="#00D2FF" offset="51%"/><stop stop-color="#00DFFF" offset="76%"/><stop stop-color="#00E3FF" offset="100%"/></linearGradient><linearGradient x1="107.685%" y1="50%" x2="-130.64%" y2="50%" id="f"><stop stop-color="#FFE000" offset="0%"/><stop stop-color="#FFBD00" offset="41%"/><stop stop-color="orange" offset="78%"/><stop stop-color="#FF9C00" offset="100%"/></linearGradient><linearGradient x1="86.219%" y1="17.877%" x2="-50.15%" y2="194.703%" id="g"><stop stop-color="#FF3A44" offset="0%"/><stop stop-color="#C31162" offset="100%"/></linearGradient><linearGradient x1="-18.754%" y1="-54.052%" x2="42.121%" y2="24.917%" id="h"><stop stop-color="#32A071" offset="0%"/><stop stop-color="#2DA771" offset="7%"/><stop stop-color="#15CF74" offset="48%"/><stop stop-color="#06E775" offset="80%"/><stop stop-color="#00F076" offset="100%"/></linearGradient><path id="a" d="M0 26.069h107.856V.642H0z"/><path d="M.862 4.517V4.45L4.707.603l.088.05L9.349 3.24c1.302.74 1.302 1.95 0 2.689l-4.554 2.59-.089.05L.862 4.72v-.203z" id="c"/></defs><g fill="none" fill-rule="evenodd"><g transform="translate(157 6.289)"><path d="M34.863 3.88c0 .78-.23 1.4-.693 1.865-.526.55-1.21.826-2.052.826-.806 0-1.493-.279-2.056-.839-.565-.558-.846-1.252-.846-2.079 0-.827.28-1.52.846-2.08.563-.558 1.25-.837 2.056-.837.4 0 .783.078 1.146.233.364.157.655.364.874.624l-.491.492c-.37-.442-.88-.663-1.53-.663a2.12 2.12 0 00-1.525.62c-.43.414-.644.95-.644 1.611 0 .66.215 1.198.644 1.611.429.414.937.62 1.526.62.624 0 1.143-.207 1.56-.624.27-.27.427-.647.468-1.13h-2.028v-.672h2.706c.026.146.04.286.04.422z" fill="#FFF"/><path d="M34.863 3.88c0 .78-.23 1.4-.693 1.865-.526.55-1.21.826-2.052.826-.806 0-1.493-.279-2.056-.839-.565-.558-.846-1.252-.846-2.079 0-.827.28-1.52.846-2.08.563-.558 1.25-.837 2.056-.837.4 0 .783.078 1.146.233.364.157.655.364.874.624l-.491.492c-.37-.442-.88-.663-1.53-.663a2.12 2.12 0 00-1.525.62c-.43.414-.644.95-.644 1.611 0 .66.215 1.198.644 1.611.429.414.937.62 1.526.62.624 0 1.143-.207 1.56-.624.27-.27.427-.647.468-1.13h-2.028v-.672h2.706c.026.146.04.286.04.422z" stroke="#FFF" stroke-width=".2"/><path fill="#FFF" d="M39.155 1.547H36.61v1.77h2.293v.672H36.61v1.77h2.544v.688h-3.262V.86h3.262z"/><path stroke="#FFF" stroke-width=".2" d="M39.155 1.547H36.61v1.77h2.293v.672H36.61v1.77h2.544v.688h-3.262V.86h3.262z"/><path fill="#FFF" d="M42.182 6.446h-.718v-4.9h-1.56V.86h3.838v.686h-1.56z"/><path stroke="#FFF" stroke-width=".2" d="M42.182 6.446h-.718v-4.9h-1.56V.86h3.838v.686h-1.56z"/><mask id="b" fill="#fff"><use xlink:href="#a"/></mask><path fill="#FFF" mask="url(#b)" d="M46.52 6.446h.717V.86h-.718z"/><path stroke="#FFF" stroke-width=".2" mask="url(#b)" d="M46.52 6.446h.717V.86h-.718z"/><path fill="#FFF" mask="url(#b)" d="M50.42 6.446h-.717v-4.9h-1.56V.86h3.838v.686h-1.56z"/><path stroke="#FFF" stroke-width=".2" mask="url(#b)" d="M50.42 6.446h-.717v-4.9h-1.56V.86h3.838v.686h-1.56z"/><path d="M55.682 5.257c.413.419.919.627 1.518.627a2.05 2.05 0 001.517-.627c.414-.42.621-.954.621-1.604 0-.65-.207-1.185-.62-1.603a2.051 2.051 0 00-1.518-.628 2.05 2.05 0 00-1.518.628c-.412.418-.62.954-.62 1.603 0 .65.208 1.185.62 1.604m3.566.467c-.55.565-1.232.847-2.048.847-.817 0-1.5-.282-2.048-.847-.549-.564-.823-1.254-.823-2.07 0-.817.274-1.508.823-2.072.549-.564 1.231-.846 2.048-.846.812 0 1.492.283 2.044.85.551.567.827 1.256.827 2.067 0 .817-.275 1.507-.823 2.071" fill="#FFF" mask="url(#b)"/><path d="M55.682 5.257c.413.419.919.627 1.518.627a2.05 2.05 0 001.517-.627c.414-.42.621-.954.621-1.604 0-.65-.207-1.185-.62-1.603a2.051 2.051 0 00-1.518-.628 2.05 2.05 0 00-1.518.628c-.412.418-.62.954-.62 1.603 0 .65.208 1.185.62 1.604zm3.566.467c-.55.565-1.232.847-2.048.847-.817 0-1.5-.282-2.048-.847-.549-.564-.823-1.254-.823-2.07 0-.817.274-1.508.823-2.072.549-.564 1.231-.846 2.048-.846.812 0 1.492.283 2.044.85.551.567.827 1.256.827 2.067 0 .817-.275 1.507-.823 2.071z" stroke="#FFF" stroke-width=".2" mask="url(#b)"/><path fill="#FFF" mask="url(#b)" d="M61.078 6.446V.86h.874l2.714 4.345h.032l-.032-1.076V.86h.72v5.586h-.75l-2.84-4.556h-.032l.032 1.077v3.48z"/><path stroke="#FFF" stroke-width=".2" mask="url(#b)" d="M61.078 6.446V.86h.874l2.714 4.345h.032l-.032-1.076V.86h.72v5.586h-.75l-2.84-4.556h-.032l.032 1.077v3.48z"/><path d="M90.277 22.274h1.736V10.635h-1.736v11.64zm15.648-7.446l-1.992 5.046h-.06l-2.066-5.046h-1.872l3.1 7.052-1.767 3.924h1.811l4.778-10.976h-1.932zm-9.853 6.124c-.57 0-1.363-.285-1.363-.989 0-.897.988-1.243 1.842-1.243.764 0 1.123.166 1.587.39a2.105 2.105 0 01-2.066 1.842zm.21-6.38c-1.258 0-2.561.555-3.1 1.783l1.541.644c.331-.644.945-.854 1.588-.854.898 0 1.813.54 1.827 1.497v.12c-.315-.18-.988-.448-1.812-.448-1.662 0-3.355.913-3.355 2.62 0 1.557 1.363 2.56 2.891 2.56 1.168 0 1.812-.523 2.216-1.138h.06v.899h1.677v-4.463c0-2.066-1.542-3.22-3.534-3.22zm-10.737 1.673h-2.47v-3.99h2.47c1.298 0 2.036 1.075 2.036 1.994 0 .903-.738 1.996-2.036 1.996zm-.045-5.61h-4.163v11.64h1.737v-4.41H85.5c1.925 0 3.819-1.394 3.819-3.616 0-2.22-1.894-3.615-3.82-3.615zM62.8 20.953c-1.2 0-2.205-1.005-2.205-2.385 0-1.395 1.005-2.415 2.205-2.415 1.185 0 2.115 1.02 2.115 2.415 0 1.38-.93 2.385-2.115 2.385zm1.995-5.475h-.06c-.39-.464-1.14-.885-2.085-.885-1.98 0-3.795 1.741-3.795 3.975 0 2.22 1.815 3.945 3.795 3.945.945 0 1.695-.42 2.085-.9h.06v.57c0 1.515-.81 2.325-2.115 2.325-1.064 0-1.724-.765-1.994-1.41l-1.515.63c.435 1.05 1.59 2.34 3.509 2.34 2.04 0 3.765-1.2 3.765-4.125v-7.11h-1.65v.645zm2.85 6.795h1.74V10.635h-1.74v11.64zm4.304-3.84c-.043-1.53 1.187-2.31 2.071-2.31.69 0 1.275.346 1.47.84l-3.54 1.47zm5.4-1.32c-.33-.884-1.334-2.52-3.389-2.52-2.04 0-3.735 1.605-3.735 3.96 0 2.22 1.68 3.96 3.93 3.96 1.815 0 2.865-1.11 3.3-1.755l-1.35-.9c-.45.66-1.065 1.095-1.95 1.095s-1.515-.405-1.92-1.2l5.295-2.19-.18-.45zM35.166 15.81v1.68h4.02c-.12.944-.434 1.634-.915 2.114-.585.585-1.5 1.23-3.105 1.23-2.475 0-4.41-1.995-4.41-4.47 0-2.474 1.935-4.47 4.41-4.47 1.335 0 2.31.525 3.03 1.201l1.185-1.185c-1.005-.96-2.34-1.696-4.215-1.696-3.39 0-6.24 2.76-6.24 6.15 0 3.39 2.85 6.15 6.24 6.15 1.83 0 3.21-.6 4.29-1.725 1.11-1.11 1.455-2.67 1.455-3.93 0-.389-.03-.75-.09-1.05h-5.655zm10.315 5.144c-1.2 0-2.235-.99-2.235-2.4 0-1.425 1.035-2.4 2.235-2.4s2.235.975 2.235 2.4c0 1.41-1.035 2.4-2.235 2.4zm0-6.36c-2.19 0-3.975 1.666-3.975 3.96 0 2.28 1.785 3.96 3.975 3.96 2.19 0 3.975-1.68 3.975-3.96 0-2.294-1.785-3.96-3.975-3.96zm8.67 6.36c-1.198 0-2.234-.99-2.234-2.4 0-1.425 1.036-2.4 2.235-2.4 1.2 0 2.235.975 2.235 2.4 0 1.41-1.035 2.4-2.235 2.4zm0-6.36c-2.189 0-3.974 1.666-3.974 3.96 0 2.28 1.785 3.96 3.975 3.96 2.19 0 3.975-1.68 3.975-3.96 0-2.294-1.785-3.96-3.975-3.96z" fill="#FFF" mask="url(#b)"/></g><g transform="translate(168.172 14.668)"><mask id="d" fill="#fff"><use xlink:href="#c"/></mask><path d="M.862 4.45v.271l3.844 3.847.089-.049 4.554-2.59c1.302-.738 1.302-1.949 0-2.688L4.795.653l-.088-.05L.862 4.45z" mask="url(#d)"/></g></g><g fill="none"><path d="M.464.406a2 2 0 00-.46 1.4v22.12a2 2 0 00.46 1.4l.07.07 12.39-12.38v-.29L.534.336l-.07.07z" fill="url(#e)" transform="translate(156 6)"/><path d="M17.024 17.146l-4.1-4.13v-.29l4.1-4.14.09.05 4.91 2.79c1.4.79 1.4 2.09 0 2.89l-4.89 2.78-.11.05z" fill="url(#f)" transform="translate(156 6)"/><path d="M17.144 17.086l-4.22-4.22-12.46 12.46a1.63 1.63 0 002.08.06l14.61-8.3" fill="url(#g)" transform="translate(156 6)"/><path d="M17.144 8.646L2.534.346a1.63 1.63 0 00-2.08.06l12.47 12.46 4.22-4.22z" fill="url(#h)" transform="translate(156 6)"/></g></svg>