<?xml version="1.0" encoding="UTF-8" standalone="no"?>
<!DOCTYPE svg PUBLIC "-//W3C//DTD SVG 1.1//EN" "http://www.w3.org/Graphics/SVG/1.1/DTD/svg11.dtd">
<svg version="1.1" xmlns="http://www.w3.org/2000/svg" xmlns:xlink="http://www.w3.org/1999/xlink" preserveAspectRatio="xMidYMid meet" viewBox="0 0 169 72" width="165" height="70"><defs><path d="M165.65 33.83C165.65 52.57 128.85 67.66 83.59 67.66C38.22 67.66 1.42 52.56 1.42 33.83C1.42 15.1 38.22 0 83.59 0C128.96 0 165.65 15.2 165.65 33.83" id="ayg2gttFp"></path><path d="M165.65 33.83C165.65 52.57 128.85 67.66 83.59 67.66C38.22 67.66 1.42 52.56 1.42 33.83C1.42 15.1 38.22 0 83.59 0C128.96 0 165.65 15.2 165.65 33.83" id="b21b8znzGx"></path><path d="M39.48 16.7L53.08 16.7L53.08 36.46L61.98 16.69L75.93 16.69L67.49 50.49L58.57 50.49L63.6 28.69L53.1 50.49L45.9 50.49L45.9 28.7L40.3 50.5L31.02 50.5L39.48 16.7Z" id="aBfsyia1i"></path><path d="M39.48 16.7L53.08 16.7L53.08 36.46L61.98 16.69L75.93 16.69L67.49 50.49L58.57 50.49L63.6 28.69L53.1 50.49L45.9 50.49L45.9 28.7L40.3 50.5L31.02 50.5L39.48 16.7Z" id="blwuP3iWd"></path><path d="M79.93 46.29L89.77 46.29L88.52 50.96L78.68 50.97L79.93 46.29Z" id="aggs1LV0p"></path><path d="M79.93 46.29L89.77 46.29L88.52 50.96L78.68 50.97L79.93 46.29Z" id="p2ruilSLjG"></path><path d="M109.08 16.7L118.78 16.7L123.02 34.74L127.72 16.69L136.62 16.69L128.16 50.49L118.79 50.49L114.11 32.09L109.41 50.49L100.52 50.5L109.08 16.7Z" id="aibOmMEQi"></path><path d="M109.08 16.7L118.78 16.7L123.02 34.74L127.72 16.69L136.62 16.69L128.16 50.49L118.79 50.49L114.11 32.09L109.41 50.49L100.52 50.5L109.08 16.7Z" id="a5201HAaMg"></path><path d="M76.62 25.26L85.52 25.26L80.72 43.89L90.45 43.89L95.25 25.25L104.15 25.25L106.33 16.68L78.68 16.7L76.62 25.26Z" id="bgWVajMp7"></path><path d="M76.62 25.26L85.52 25.26L80.72 43.89L90.45 43.89L95.25 25.25L104.15 25.25L106.33 16.68L78.68 16.7L76.62 25.26Z" id="m1nubDJnW9"></path></defs><g><g><use xlink:href="#ayg2gttFp" opacity="1" fill="#11688f" fill-opacity="1"></use><g><use xlink:href="#ayg2gttFp" opacity="1" fill-opacity="0" stroke="#000000" stroke-width="1" stroke-opacity="0"></use></g></g><g><use xlink:href="#b21b8znzGx" opacity="1" fill="#000000" fill-opacity="0"></use><g><use xlink:href="#b21b8znzGx" opacity="1" fill-opacity="0" stroke="#000000" stroke-width="1" stroke-opacity="0"></use></g></g><g><use xlink:href="#aBfsyia1i" opacity="1" fill="#ffffff" fill-opacity="1"></use><g><use xlink:href="#aBfsyia1i" opacity="1" fill-opacity="0" stroke="#000000" stroke-width="1" stroke-opacity="0"></use></g></g><g><use xlink:href="#blwuP3iWd" opacity="1" fill="#000000" fill-opacity="0"></use><g><use xlink:href="#blwuP3iWd" opacity="1" fill-opacity="0" stroke="#000000" stroke-width="1" stroke-opacity="0"></use></g></g><g><use xlink:href="#aggs1LV0p" opacity="1" fill="#eb1c24" fill-opacity="1"></use><g><use xlink:href="#aggs1LV0p" opacity="1" fill-opacity="0" stroke="#000000" stroke-width="1" stroke-opacity="0"></use></g></g><g><use xlink:href="#p2ruilSLjG" opacity="1" fill="#000000" fill-opacity="0"></use><g><use xlink:href="#p2ruilSLjG" opacity="1" fill-opacity="0" stroke="#000000" stroke-width="1" stroke-opacity="0"></use></g></g><g><use xlink:href="#aibOmMEQi" opacity="1" fill="#ffffff" fill-opacity="1"></use><g><use xlink:href="#aibOmMEQi" opacity="1" fill-opacity="0" stroke="#000000" stroke-width="1" stroke-opacity="0"></use></g></g><g><use xlink:href="#a5201HAaMg" opacity="1" fill="#000000" fill-opacity="0"></use><g><use xlink:href="#a5201HAaMg" opacity="1" fill-opacity="0" stroke="#000000" stroke-width="1" stroke-opacity="0"></use></g></g><g><use xlink:href="#bgWVajMp7" opacity="1" fill="#fccb12" fill-opacity="1"></use><g><use xlink:href="#bgWVajMp7" opacity="1" fill-opacity="0" stroke="#000000" stroke-width="1" stroke-opacity="0"></use></g></g><g><use xlink:href="#m1nubDJnW9" opacity="1" fill="#000000" fill-opacity="0"></use><g><use xlink:href="#m1nubDJnW9" opacity="1" fill-opacity="0" stroke="#000000" stroke-width="1" stroke-opacity="0"></use></g></g></g></svg>