<svg xmlns="http://www.w3.org/2000/svg" viewBox="0 0 31 31" enable-background="new 0 0 31 31"><style type="text/css">.st0{fill:#F01010;} .st1{fill:#FFFFFF;}</style><circle cx="15.5" cy="15.5" r="15" class="st0"/><path d="M25.9 19.8c0 .2 0 .4 0 .6-1.2 0-2.5 0-3.7 0 0-.2 0-.3 0-.5 0 0 .1-.1.1-.1.2 0 .5 0 .7 0 .3 0 .4-.2.4-.4 0-.5 0-1 0-1.6 0-1.4 0-2.9 0-4.3 0-.2 0-.5 0-.7 0 .1-.1.1-.1.2-1.2 2.4-2.5 4.9-3.7 7.3 0 0-.1.1-.1.1s-.1-.1-.1-.1c-1.3-2.5-2.6-5-3.9-7.5 0 0 0-.1-.1-.1 0 0 0 .1 0 .1 0 1.9 0 3.9 0 5.8 0 .3 0 .6.1.9.1.4.2.5.6.5.3 0 .5 0 .8 0 0 .2 0 .4 0 .6-1.2 0-2.5 0-3.7 0 0-.2 0-.4 0-.6.2 0 .4 0 .5 0 .2 0 .3 0 .5 0 .3-.1.5-.2.5-.5.1-.3.1-.7.1-1 0-1.6.1-3.2.1-4.7 0-.7 0-1.3 0-2 0-.3-.1-.4-.4-.4-.2 0-.3 0-.5 0 0-.2 0-.3 0-.5 0 0 .1 0 .1 0 .6 0 1.2 0 1.8 0 .1 0 .2 0 .2.1 1.2 2.5 2.4 5 3.6 7.5 0 0 0 .1.1.1 0-.1.1-.1.1-.1 1.2-2.5 2.4-5 3.6-7.5.1-.1.1-.2.2-.2.7 0 1.3 0 2 0 0 0 .1 0 .2 0 0 .2 0 .3 0 .5-.1 0-.3 0-.4 0-.5 0-.6.1-.6.6 0 2 0 4 0 6 0 .6 0 1.2 0 1.8 0 .3.1.4.4.4.2 0 .3 0 .5 0-.1-.3 0-.3.1-.3zM5.1 15.6c.2 0 .4.1.6.1.9.1 1.9.2 2.9.2.6 0 1.1-.1 1.7-.2.6-.1 1.1-.4 1.5-.9.2-.3.3-.6.4-.9.1-.4 0-.8 0-1.2-.2-.8-1-1.5-1.8-1.6-.4 0-.8 0-1.3-.1 0 1.5 0 3 0 4.5-.4 0-.8 0-1.3 0 0-.1 0-.1 0-.2 0-1.2 0-2.4 0-3.5 0-.1 0-.3 0-.4 0-.2-.1-.3-.3-.3-.2 0-.5 0-.7 0 0 0-.1 0-.2 0 0-.2 0-.3 0-.4 0 0 .1 0 .1 0 1.4 0 2.9 0 4.3 0 1.2 0 2.3 1.1 2.5 2.2.1.8-.1 1.5-.6 2.2-.4.5-1 .8-1.6.9-.8.2-1.7.2-2.5.2s-1.6 0-2.4-.2c-.4-.1-.7-.2-1.1-.3-.1 0-.2-.1-.2-.1zM6.5 19.8c.2 0 .4 0 .6 0 .3 0 .4-.2.5-.5 0-.1 0-.2 0-.3 0-.8 0-1.6 0-2.3 0-.1 0-.1.1-.1.4 0 .7 0 1.1 0 0 .1 0 .1 0 .2 0 .8 0 1.6 0 2.4 0 .1 0 .2 0 .3 0 .2.1.3.3.3.2 0 .5 0 .7 0 .1 0 .1 0 .2 0 0 .2 0 .4 0 .6 0 0-.1 0-.1 0-1.1 0-2.3 0-3.4 0-.1 0-.2 0-.1-.1.1-.2.1-.4.1-.5z" class="st1"/></svg>