<svg xmlns="http://www.w3.org/2000/svg" width="65" height="17" fill="none"><g clip-path="url(#a)"><path fill="#EE3023" d="M16.13 8.3c0 4.33-3.5 7.83-7.82 7.83C4 16.13.5 12.63.5 8.3.5 4 4 .5 8.3.5c4.33 0 7.83 3.5 7.83 7.8z"/><path fill="#fff" d="M8.38 12.67c-2.15 0-4.38-1.82-4.4-4.77 0-1.94 1.05-3.82 2.4-4.93C7.67 1.9 9.47 1.2 11.1 1.2c.2 0 .43 0 .56.05-1.42.3-2.55 1.62-2.55 3.12 0 .05.02.1.02.13 2.38.58 3.46 2 3.47 4 0 2-1.58 4.16-4.22 4.17"/><path fill="#EE3023" d="M21.17 11.55l-2.4-5.7h1.57l1.5 3.78 1.44-3.78h1.5l-2.33 5.7h-1.28zM28.92 8.67c0-.24-.02-.46-.08-.68-.05-.22-.14-.4-.25-.56-.12-.15-.25-.28-.4-.37-.17-.1-.35-.13-.57-.13-.2 0-.4.04-.55.13-.16.1-.3.22-.4.37-.1.16-.2.34-.25.55-.06.2-.08.43-.08.67 0 .24.02.47.08.68.05.2.13.4.24.55.1.16.24.3.4.38.16.1.35.13.56.13.22 0 .4-.03.56-.12.15-.1.28-.22.4-.38.1-.15.2-.34.24-.55.06-.2.08-.44.08-.68zm1.45 0c0 .38-.06.74-.17 1.1-.12.36-.3.68-.5.96-.24.3-.52.52-.87.7-.34.16-.74.25-1.2.25-.45 0-.85-.1-1.2-.26-.34-.17-.62-.4-.85-.7-.22-.27-.4-.6-.5-.95-.12-.36-.18-.72-.18-1.1 0-.36.06-.73.17-1.08.12-.37.3-.68.5-.96.24-.28.52-.5.86-.68.35-.17.75-.25 1.2-.25.46 0 .86.1 1.2.26.34.17.62.4.85.68.23.28.4.6.52.95.1.34.17.7.17 1.08zM34.77 7.1c-.28-.1-.54-.16-.8-.16-.24 0-.45.05-.63.14-.18.1-.33.22-.45.38-.13.17-.22.35-.28.55-.05.2-.08.42-.08.63 0 .24.02.47.07.7.06.2.14.4.25.56.1.15.24.28.4.38.16.1.35.15.57.15.18 0 .36-.05.55-.15.2-.1.32-.22.4-.35V7.1zm.12 4.45l-.07-.44c-.13.16-.3.3-.53.4-.22.12-.48.18-.78.18-.4 0-.74-.08-1.03-.25-.3-.16-.57-.4-.77-.66-.2-.28-.36-.6-.47-.96-.1-.35-.15-.73-.15-1.13 0-.37.06-.73.17-1.08.1-.37.28-.68.5-.96.23-.28.5-.5.84-.68.35-.17.75-.25 1.2-.25.3 0 .63.06.97.17v-2.2h1.47v7.88H34.9zM40.37 8.88c-.16 0-.33.02-.5.04-.16.02-.32.04-.47.08-.32.06-.54.17-.66.32s-.18.32-.18.5c0 .2.07.34.2.46.14.1.34.17.6.17.18 0 .37-.04.55-.12.2-.08.34-.18.47-.3V8.9zm.1 2.66l-.04-.42c-.16.17-.36.3-.6.4-.26.1-.52.16-.82.16-.23 0-.47-.04-.7-.13-.22-.08-.42-.2-.6-.35-.17-.15-.3-.34-.4-.57-.12-.22-.17-.48-.17-.76s.05-.53.16-.75c.1-.22.25-.4.44-.55.2-.15.4-.27.66-.37.24-.1.5-.16.77-.2.2-.05.4-.08.62-.1.22-.02.4-.04.55-.05v-.1c0-.3-.08-.52-.24-.66-.15-.14-.38-.2-.66-.2-.17 0-.33 0-.48.05-.15.04-.28.1-.4.15-.12.06-.22.12-.32.17-.1.06-.16.12-.22.16l-.48-1.02c.06-.05.16-.12.3-.2.12-.07.28-.15.46-.23.2-.07.4-.13.63-.2.23-.04.48-.06.75-.06.32 0 .6.05.86.13s.5.2.68.4c.2.17.33.4.44.66.1.27.16.6.16.98v3.66h-1.34zM46.35 4.96c-.05-.02-.14-.06-.28-.1-.13-.04-.32-.06-.55-.06-.2 0-.37.06-.5.18-.15.12-.22.32-.22.6v.27h1.23v1.18H44.8v4.52h-1.45V7.03h-.76V5.85h.75v-.3c0-.38.04-.7.14-.95.08-.25.22-.46.4-.62.16-.17.35-.3.58-.36.23-.08.48-.1.75-.1.35 0 .65.02.88.1.24.06.38.1.42.12l-.17 1.22zM50.35 8.67c0-.24-.03-.46-.08-.68-.06-.22-.14-.4-.25-.56-.1-.15-.25-.28-.4-.37-.16-.1-.35-.13-.56-.13-.2 0-.4.04-.55.13-.15.1-.3.22-.4.37-.1.16-.2.34-.25.55-.05.2-.08.43-.08.67 0 .24.03.47.08.68.06.2.14.4.25.55.1.16.24.3.4.38.16.1.35.13.56.13.2 0 .4-.03.56-.12.15-.1.3-.22.4-.38.1-.15.2-.34.25-.55.05-.2.08-.44.08-.68zm1.44 0c0 .38-.07.74-.18 1.1-.1.36-.28.68-.5.96-.23.3-.52.52-.86.7-.34.16-.74.25-1.2.25-.46 0-.86-.1-1.2-.26-.34-.17-.63-.4-.85-.7-.22-.27-.4-.6-.5-.95-.12-.36-.17-.72-.17-1.1 0-.36.05-.73.17-1.08.1-.37.28-.68.5-.96.23-.28.52-.5.86-.68.34-.17.74-.25 1.2-.25.46 0 .86.1 1.2.26.33.17.62.4.85.68.24.28.4.6.52.95.1.34.17.7.17 1.08zM56.34 11.55V8.3c0-.44-.1-.77-.27-1-.18-.24-.43-.36-.76-.36-.2 0-.42.06-.62.17-.2.13-.36.26-.5.4v4.05H52.7v-5.7h1.35l.07.45c.23-.2.5-.34.78-.44.28-.1.57-.15.86-.15.3 0 .58.05.83.14.24.1.46.24.64.43.18.2.32.46.42.77.1.32.15.7.15 1.14v3.37h-1.46zM62.37 8c0-.18-.05-.36-.12-.5-.07-.15-.15-.26-.25-.36-.1-.1-.2-.15-.32-.2-.12-.04-.23-.06-.35-.06-.26 0-.5.1-.73.28-.23.2-.36.47-.4.85h2.17zm-2.2 1.07c.02.48.17.82.44 1.04.28.22.63.33 1.06.33.2 0 .38-.02.56-.06.17-.03.32-.08.46-.13.13-.06.25-.1.34-.17.1-.05.17-.1.22-.15l.4 1.2c-.07.03-.16.08-.28.15-.12.07-.27.13-.45.2-.18.05-.4.1-.63.14-.25.06-.52.08-.8.08-.38 0-.73-.06-1.07-.18-.33-.12-.63-.3-.88-.55-.25-.25-.45-.56-.6-.93-.15-.37-.22-.8-.22-1.32 0-.48.06-.9.2-1.28.14-.37.33-.68.57-.93.24-.26.52-.46.84-.6.33-.13.67-.2 1.03-.2.37 0 .7.07 1 .18.32.12.58.3.8.55.23.25.4.57.54.97.13.4.2.86.2 1.4v.27h-3.7z"/></g><defs><clipPath id="a"><path fill="#fff" d="M0 0h64.36v16.63H0z"/></clipPath></defs></svg>