<svg width="58" height="43" xmlns="http://www.w3.org/2000/svg"><g fill="#259EFA"><path d="M33.653 36.634H5.613A2.079 2.079 0 013.5 34.52V5.613c0-1.195.918-2.113 2.113-2.113h46.974c1.195 0 2.114.918 2.114 2.113V34.52a2.079 2.079 0 01-2.114 2.114 1.5 1.5 0 100 3 5.078 5.078 0 005.114-5.114V5.613A5.078 5.078 0 0052.587.5H5.613A5.078 5.078 0 00.5 5.613V34.52a5.078 5.078 0 005.113 5.114h28.04a1.5 1.5 0 100-3z"/><path d="M3.5 10.727v6.033h51.2v-6.033H3.5zm54.2-3V19.76H.5V7.727h57.2zM39.752 37.049a1310.78 1310.78 0 013.007 3.432 7675.764 7675.764 0 005.313-6.08h-2.856a1 1 0 01-1-1v-8.468h-2.987v8.54a1 1 0 01-1 1h-2.753c.713.802 1.461 1.65 2.276 2.576zM50.275 32.4c.859 0 1.318 1.012.752 1.659a5845.17 5845.17 0 00-3.757 4.299c-1.87 2.141-2.704 3.096-3.759 4.3a1 1 0 01-1.505 0l-1.885-2.155-1.871-2.134a542.134 542.134 0 00-3.751-4.229c-.578-.643-.121-1.668.744-1.668h3.986v-8.539a1 1 0 011-1h4.987a1 1 0 011 1V32.4h4.059z"/></g></svg>