<svg width="156" height="78" xmlns="http://www.w3.org/2000/svg"><path d="M47.333 18.5c0-10.201-8.299-18.5-18.5-18.5h-4c-10.201 0-18.5 8.299-18.5 18.5v14.546C2.386 37.719 0 43.752 0 50.333c0 14.796 12.038 26.833 26.833 26.833 14.795 0 26.833-12.037 26.833-26.833 0-6.582-2.386-12.614-6.333-17.287V18.5zm-9.905 31.333a10.558 10.558 0 00-2.749-6.639l6.508-6.508a19.739 19.739 0 015.453 13.147h-9.212zm-30.403 0a19.74 19.74 0 015.454-13.148l6.508 6.508a10.563 10.563 0 00-2.749 6.639H7.025v.001zm33.456-13.854l-6.508 6.508a10.569 10.569 0 00-6.639-2.749v-9.213a19.745 19.745 0 0113.147 5.454zm-14.148 3.76a10.562 10.562 0 00-6.639 2.748l-6.508-6.508a19.739 19.739 0 0113.147-5.453v9.213zm-6.638 18.44a10.562 10.562 0 006.639 2.748v9.213a19.742 19.742 0 01-13.147-5.453l6.508-6.508zm7.638 2.749a10.558 10.558 0 006.639-2.749l6.508 6.508a19.74 19.74 0 01-13.147 5.454v-9.213zM24.833 7h4c6.341 0 11.5 5.159 11.5 11.5v8.658a26.66 26.66 0 00-13.5-3.658 26.66 26.66 0 00-13.5 3.658V18.5c0-6.341 5.159-11.5 11.5-11.5zM7.025 50.833h9.214a10.558 10.558 0 002.749 6.639L12.48 63.98a19.737 19.737 0 01-5.455-13.147zM41.188 63.98l-6.508-6.508a10.562 10.562 0 002.748-6.639h9.213a19.74 19.74 0 01-5.453 13.147zm55.39-14.255c3.657-2.808 5.486-6.735 5.486-11.779 0-3.466-1.088-6.221-3.263-8.265-2.176-2.044-5.379-3.329-9.61-3.855v-.215c3.586-.861 6.369-2.438 8.354-4.733 1.985-2.295 2.977-5.079 2.977-8.354 0-3.92-1.572-6.98-4.715-9.179C92.663 1.146 88.378.046 82.952.046c-6.621 0-12.323 1.721-17.103 5.164l5.128 7.637c2.175-1.411 4.153-2.402 5.934-2.976 1.78-.574 3.532-.861 5.253-.861 4.971 0 7.458 1.985 7.458 5.952 0 2.582-.938 4.405-2.815 5.468-1.877 1.064-4.847 1.596-8.91 1.596h-4.052v8.498h3.98c4.399 0 7.602.514 9.61 1.542 2.008 1.028 3.012 2.773 3.012 5.235 0 2.749-.872 4.745-2.617 5.988-1.746 1.243-4.446 1.865-8.103 1.865-2.392 0-4.805-.323-7.244-.968-2.438-.646-4.673-1.482-6.705-2.51v9.43c4.399 1.889 9.442 2.833 15.131 2.833 6.789-.001 12.011-1.405 15.669-4.214zm58.41-23.217c0-8.104-2.367-14.414-7.1-18.932C143.156 3.058 136.51.799 127.952.799h-16.458v52.422h14.845c9.275 0 16.369-2.295 21.28-6.884 4.913-4.59 7.369-11.199 7.369-19.829zm-27.609 17.534h-4.769V9.906h5.917c9.943 0 14.916 5.63 14.916 16.889 0 11.498-5.356 17.247-16.064 17.247zM71.511 66.828c-1.268-.605-2.072-1.024-2.411-1.258-.339-.234-.587-.474-.742-.724a1.627 1.627 0 01-.233-.877c0-.54.192-.978.577-1.313.384-.335.937-.503 1.656-.503a7.67 7.67 0 011.847.233c.626.155 1.417.429 2.374.822l1.227-2.957a18.222 18.222 0 00-2.656-.932 10.528 10.528 0 00-2.669-.331c-1.898 0-3.384.454-4.46 1.362-1.076.908-1.614 2.155-1.614 3.742 0 .843.164 1.579.491 2.209.327.63.765 1.182 1.313 1.656.548.474 1.37.969 2.466 1.485 1.17.556 1.945.961 2.325 1.215.38.254.669.517.865.791.196.274.294.587.294.939 0 .63-.223 1.104-.669 1.423-.446.319-1.086.479-1.92.479-.695 0-1.462-.11-2.301-.331-.838-.221-1.863-.601-3.074-1.141v3.534c1.472.72 3.166 1.08 5.08 1.08 2.078 0 3.699-.466 4.865-1.399 1.166-.932 1.748-2.209 1.748-3.828 0-1.17-.311-2.157-.932-2.963-.621-.807-1.77-1.611-3.447-2.413zm7.632 10.356h10.331v-3.141h-6.527v-4.626h6.073v-3.116h-6.073v-3.939h6.527v-3.116H79.143v17.938zm21.693-15.03c.654 0 1.321.119 2 .356s1.354.515 2.025.834l1.227-3.092c-1.759-.843-3.509-1.264-5.252-1.264-1.71 0-3.2.374-4.472 1.123-1.272.749-2.247 1.824-2.926 3.227-.679 1.403-1.018 3.037-1.018 4.902 0 2.961.691 5.233 2.074 6.816 1.382 1.583 3.378 2.374 5.988 2.374 1.816 0 3.46-.307 4.932-.92v-3.19c-1.791.63-3.317.945-4.577.945-3.002 0-4.503-2-4.503-6 0-1.922.393-3.421 1.178-4.497.784-1.077 1.893-1.614 3.324-1.614zm19.202 8.049c0 1.391-.28 2.411-.84 3.061-.56.65-1.462.975-2.706.975-1.284 0-2.205-.323-2.761-.969-.556-.646-.834-1.661-.834-3.043V59.246h-3.791v11.558c0 2.053.638 3.671 1.914 4.853 1.276 1.182 3.067 1.773 5.374 1.773 1.53 0 2.855-.266 3.975-.798s1.977-1.297 2.57-2.294c.593-.998.89-2.159.89-3.485V59.246h-3.791v10.957zm19.706-2.767c.581-.822.871-1.761.871-2.816 0-1.808-.585-3.155-1.755-4.043-1.17-.888-2.973-1.331-5.411-1.331h-5.227v17.939h3.804v-6.883h2.025l4.282 6.883h4.221c-.818-1.178-2.577-3.783-5.276-7.816 1.063-.467 1.885-1.111 2.466-1.933zm-3.828-.829c-.573.401-1.46.601-2.663.601h-1.227v-4.847h1.153c1.227 0 2.133.18 2.718.54.585.36.877.965.877 1.816.001.86-.286 1.49-.858 1.89zm19.227-4.245v-3.116h-10.332v17.938h10.332v-3.141h-6.528v-4.626h6.074v-3.116h-6.074v-3.939h6.528z" fill="#FFF" fill-rule="evenodd"/></svg>