<svg width="74" height="24" xmlns="http://www.w3.org/2000/svg"><g fill="none" fill-rule="evenodd"><path d="M18.537 20.6c-2.83 0-4.755-1.49-4.889-3.832h1.843c.143 1.338 1.43 2.224 3.19 2.224 1.69 0 2.904-.886 2.904-2.097 0-1.048-.738-1.681-2.445-2.115l-1.663-.416c-2.39-.596-3.478-1.69-3.478-3.488 0-2.215 1.924-3.752 4.665-3.752 2.678 0 4.547 1.546 4.619 3.77h-1.824c-.127-1.339-1.213-2.161-2.832-2.161-1.609 0-2.723.831-2.723 2.033 0 .949.7 1.51 2.409 1.943l1.402.353c2.67.65 3.766 1.708 3.766 3.607-.001 2.422-1.906 3.931-4.944 3.931zm-12.212 0c-3.712 0-6.04-2.593-6.04-6.733s2.328-6.743 6.04-6.743c3.711 0 6.03 2.603 6.03 6.743 0 4.139-2.319 6.733-6.03 6.733zm0-11.814c-2.544 0-4.134 1.962-4.134 5.08 0 3.109 1.59 5.07 4.134 5.07 2.534 0 4.134-1.961 4.134-5.07 0-3.118-1.6-5.08-4.134-5.08zm6.872-4.361a1.68 1.68 0 01-.42.053 1.77 1.77 0 01-.58-.091 1.336 1.336 0 01-.454-.256 1.146 1.146 0 01-.295-.399 1.247 1.247 0 01-.105-.521c0-.375.138-.668.416-.878.277-.211.68-.334 1.206-.368l1.145-.067v-.33c0-.246-.078-.434-.233-.562-.155-.128-.374-.192-.659-.192a1.18 1.18 0 00-.321.043.88.88 0 00-.262.124.707.707 0 00-.29.443h-.793c.005-.188.052-.363.139-.523.087-.16.206-.299.356-.417s.326-.21.53-.275c.204-.065.425-.099.665-.099.258 0 .491.033.701.099.21.066.39.16.538.281.148.122.263.268.343.44.08.172.121.364.121.576v2.929h-.808v-.712h-.02c-.06.115-.136.22-.228.313a1.466 1.466 0 01-.692.389zm.913-1.594v-.334l-1.032.072c-.292.018-.51.08-.658.186a.515.515 0 00-.222.442c0 .184.073.33.22.438.145.11.341.163.586.163.156 0 .303-.024.437-.072.135-.048.254-.115.353-.2a.9.9 0 00.316-.695zM4.488.166h.81v.723h.015a1.204 1.204 0 01.47-.564c.103-.067.219-.118.343-.153a1.46 1.46 0 01.395-.053c.297 0 .548.071.752.214.205.142.35.347.436.615h.02c.054-.13.126-.244.214-.346a1.376 1.376 0 01.683-.426c.136-.038.28-.057.431-.057.209 0 .398.033.569.1.17.068.316.162.438.284.12.122.214.27.28.444.064.173.097.367.097.58v2.909h-.844V1.73c0-.28-.072-.497-.216-.65C9.24.925 9.034.85 8.768.85c-.13 0-.25.023-.358.068a.817.817 0 00-.28.194.868.868 0 00-.183.296 1.036 1.036 0 00-.067.378v2.65h-.832V1.66a.933.933 0 00-.058-.334.704.704 0 00-.418-.419.952.952 0 00-.338-.057c-.13 0-.25.025-.362.073a.854.854 0 00-.471.509c-.043.117-.113.246-.113.384v2.619h-.8V.166zM15.99 1.398c.095-.269.229-.499.402-.69.174-.192.383-.339.627-.442a2.07 2.07 0 01.817-.156c.27 0 .515.041.733.122.218.081.404.19.56.328a1.604 1.604 0 01.536 1.063h-.808a1.05 1.05 0 00-.11-.314.858.858 0 00-.206-.252.97.97 0 00-.303-.167 1.175 1.175 0 00-.393-.06c-.172 0-.328.035-.467.104-.14.07-.259.168-.358.295a1.398 1.398 0 00-.23.463 2.086 2.086 0 00-.082.607c0 .23.027.438.082.62.054.182.132.335.233.46.1.127.221.223.362.29.14.066.296.1.465.1.276 0 .501-.065.676-.196.175-.13.287-.322.34-.574h.809a1.625 1.625 0 01-.183.61c-.1.183-.227.339-.385.468-.158.13-.343.23-.557.301a2.24 2.24 0 01-.703.106c-.303 0-.576-.05-.821-.15a1.763 1.763 0 01-.63-.435 1.947 1.947 0 01-.404-.688 2.735 2.735 0 01-.143-.913c-.002-.33.045-.631.14-.9zM73.689 0l-.013 11.28a.667.667 0 01-.063.138H60.832V1.877c.795-.12 1.6-.243 2.403-.36l6.11-.9 3.689-.542a1.5 1.5 0 00.227-.073h.428V0zm-.024 12.651V24l-12.829-1.827v-9.52h12.829v-.002zM50 20.684v-8.14h9.656v9.48L50 20.684zm9.665-18.64v9.459h-9.65V3.37l9.65-1.327z" fill="#4B9DF4"/><path fill="#4C9DF4" opacity=".6" d="M38.284 10.746H43v1.53h-4.716V17h-1.591v-4.724H32v-1.53h4.693V6h1.591z"/></g></svg>