<svg version="1.1" id="Layer_1" xmlns="http://www.w3.org/2000/svg" x="0" y="0" viewBox="0 0 116 69.7" xml:space="preserve"><style>.st0{fill:#fff}</style><path class="st0" d="M63.5 33h-2.1v-8.2h-2.7V23h7.5v1.8h-2.7V33zm8.3-7.8c.3 0 .5 0 .7.1l-.2 1.9c-.2 0-.4-.1-.6-.1-.7 0-1.2.2-1.5.5-.4.3-.6.8-.6 1.4v4h-2.1v-7.6h1.6l.3 1.3h.1c.2-.4.6-.8 1-1 .4-.3.8-.5 1.3-.5zm7.4 7.8l-.2-1h-.1c-.2.4-.5.6-.9.8-.4.2-.9.3-1.4.3-.9 0-1.6-.2-2-.7-.5-.5-.7-1.2-.7-2.1v-5H76v4.4c0 .5.1 1 .3 1.2.2.3.5.4.9.4.6 0 1-.2 1.3-.6.3-.4.4-1 .4-1.9v-3.6H81V33h-1.8zm9.1-2.3c0 .8-.3 1.4-.8 1.8-.5.4-1.4.6-2.4.6-.6 0-1 0-1.4-.1-.4-.1-.8-.2-1.1-.3V31c.4.2.8.3 1.3.5.5.1.9.2 1.3.2.8 0 1.1-.2 1.1-.7 0-.2 0-.3-.1-.4-.1-.1-.3-.2-.5-.3l-1-.5c-.6-.2-1-.5-1.3-.7-.3-.2-.5-.4-.6-.7s-.2-.6-.2-1c0-.7.3-1.2.8-1.6.5-.4 1.3-.6 2.2-.6.9 0 1.8.2 2.7.6l-.6 1.5c-.4-.2-.7-.3-1.1-.4-.3-.1-.7-.2-1-.2-.6 0-.9.2-.9.5 0 .2.1.3.3.5.2.1.6.3 1.3.6.6.2 1 .5 1.3.7.3.2.5.4.6.7s.1.7.1 1zm4.8.8c.4 0 .8-.1 1.3-.2v1.5c-.5.2-1.2.3-1.9.3-.8 0-1.4-.2-1.8-.6-.4-.4-.6-1-.6-1.9v-3.7h-1V26l1.1-.7.6-1.6h1.3v1.6h2.1v1.6h-2.1v3.7c0 .3.1.5.2.7.3.1.6.2.8.2zm6.3 1.6c-1.2 0-2.2-.3-2.9-1-.7-.7-1-1.6-1-2.9 0-1.3.3-2.3 1-3s1.5-1 2.6-1 1.9.3 2.5.9c.6.6.9 1.5.9 2.5v1h-4.9c0 .6.2 1 .5 1.4.3.3.8.5 1.4.5.5 0 .9 0 1.3-.1s.8-.2 1.3-.5v1.6c-.4.2-.7.3-1.2.4s-.9.2-1.5.2zm-.3-6.4c-.4 0-.8.1-1 .4-.2.3-.4.7-.4 1.2h2.9c0-.5-.1-.9-.4-1.2-.3-.2-.6-.4-1.1-.4zm7.5 6.4c-.9 0-1.6-.3-2.1-1s-.8-1.7-.8-2.9.3-2.2.8-2.9 1.2-1 2.1-1c1 0 1.7.4 2.2 1.1h.1c-.1-.6-.2-1.1-.2-1.5v-2.4h2.1V33h-1.6l-.4-1h-.1c-.4.7-1.1 1.1-2.1 1.1zm.7-1.6c.5 0 .9-.2 1.2-.5.2-.3.4-.8.4-1.6v-.2c0-.8-.1-1.4-.4-1.8-.3-.4-.7-.5-1.2-.5s-.8.2-1.1.6c-.3.4-.4 1-.4 1.7s.1 1.3.4 1.7c.3.4.6.6 1.1.6zM28.7 5.3c-.4-.5-.3-.9.1-1.1.7-.4 1.4-.7 2.2-.8 1-.1 2.1.1 3.2.2C31.7 2 29 1 26.1.7c-3.8-.4-7.4.6-10.6 2.6-2.4 1.5-4.6 3.3-6.8 5-.4.3-.8.3-1.2 0-.8-.6-1.1-1.4-1-2.4.2-1.1.5-2.2.7-3.3 0 0-.1 0-.1-.1-.2.3-.4.6-.5.9-1.3 2.3-2.1 4.7-2.3 7.3-.6 5.3 1.1 9.9 4.4 14.1 1 1.2 2.1 2.4 3.1 3.6.4.4.3.7 0 1.1-.9 1-2.1 1.1-3.3 1-.9-.2-1.6-.4-2.5-.5 3.4 2.3 7.1 3.1 10.9 3 4.3-.2 8.1-1.8 11.3-4.6 1.1-1 2.2-2 3.4-2.9.7-.6.8-.6 1.2.2.3.6.6 1.2.7 1.8.2 1 .2 2.1.2 3.1 1.6-2.5 2.3-5.3 2.5-8.3.3-4.3-1-8.2-3.5-11.7-1.3-1.9-2.7-3.6-4-5.3zm1 21.3c0 .1-.1.2-.2.2h-.2c.3-1.4.2-2.8-.7-4.1-1 .9-2 1.8-3 2.6-4.6 3.6-10.3 4-15.2 1.1-.1-.1-.3-.1-.4-.2.1-.1.1-.2.2-.2.6.1 1.2.3 1.8.3.6 0 1.3-.2 1.8-.4s.5-.5.1-1c-1.1-1.4-2.4-2.7-3.3-4.2-2.7-4.5-2.6-9.1 0-13.6.1-.2.2-.3.3-.5.1 0 .1 0 .2.1-.1.4-.1.7-.2 1.1-.1.7-.3 1.4-.2 2 0 .4.4.8.7 1 .1.1.6-.2.8-.4C14.4 8.7 16.6 7 19.3 6c3.8-1.4 7.3-.7 10.6 1.3.1.1.2.2.4.5-.6-.1-1-.2-1.5-.2-.8 0-1.5.1-2.3.3-.4.1-.5.5-.1 1.1 1.3 1.7 2.6 3.3 3.6 5.1 2.3 4.2 1.9 8.4-.3 12.5zM65.5 4.8c-.3 0-.5.1-.5.4v1h-.1c-.1-.1-.2-.2-.3-.4l-.3-.3c-1.5-1.2-3.2-1.2-4.9-.5-2.3 1-3.5 3.7-2.8 6.3.5 1.8 1.6 3 3.4 3.4 1.8.4 3.4.1 4.6-1.3 0 0 .1-.1.2-.1v1.4c-.2 2.1-1.3 3.1-3.3 3.2-1.2.1-2.4-.2-3.5-.8-.1.3-.2.5-.3.8-.2.6-.2.7.4.9 1.8.6 3.6.7 5.4.2 1.8-.5 2.8-1.7 3.1-3.5.1-.6.2-1.2.2-1.8V4.8h-1.3zm-.7 5.7c0 1.4-.8 2.5-2.2 2.9-1.4.4-2.9-.2-3.6-1.4-.9-1.6-.8-3.2.1-4.7.7-1.1 1.9-1.5 3.2-1.3 1.2.2 2 .8 2.3 2 .2.5.2 2.3.2 2.5zM48.7.5c0-.4-.1-.5-.5-.5h-1c-.4 0-.5.1-.5.5V6c-.4-.3-.7-.6-1.1-.8-1.7-1-4.2-.7-5.7.7-1.6 1.5-2.2 4.3-1.2 6.4 1.4 3.3 5.7 3.9 8 1.1 0-.1.1-.1.2-.2 0 .5 0 1 .1 1.4 0 .1.2.3.3.3h1.5v-.3c0-1.8 0-3.7-.1-5.5V.5zm-2.1 11.1c-.3 1.2-1.4 2-2.7 2.1-1.4.1-2.5-.6-3.1-1.8-.7-1.5-.6-3 .2-4.4.7-1.2 2-1.7 3.3-1.5 1.3.2 2.2 1.2 2.4 2.3.1.5.1 1.5.1 1.5-.1.6-.1 1.2-.2 1.8zm46.9-2.7c-.2-1.8-.9-3.2-2.6-4-1.5-.7-3.1-.6-4.7.1-2.1 1-3 2.7-3 5 0 2 .7 3.6 2.6 4.5 2.2 1.1 4.5.8 6.8.1.1 0 .2-.2.2-.3-.1-.5-.2-.9-.3-1.4h-.1c-.1 0-.3.1-.4.1-1.4.3-2.8.5-4.2 0-.9-.3-1.5-.9-1.8-1.8-.2-.7-.1-.7.5-.7H93c.4 0 .5-.1.5-.5s.1-.7 0-1.1zm-2.8-.1H86l-.1-.1c.1-1.8 1.8-3.1 3.7-2.3.9.4 1.2 1.3 1.3 2.1.1.1-.1.3-.2.3zm19.2-4.1h-2.2c-.4 0-.5-.1-.5-.5V2.1c-.7.2-1.3.3-1.9.5-1 .3-.8.1-.8 1 0 1.1 0 1.1-1.1 1.1h-.3c-.1 0-.2.1-.2.2v1.6c.3 0 .7.1 1 .1.3 0 .4.1.4.4v3.5c0 .6 0 1.3.1 1.9.1 1 .5 1.8 1.4 2.2 1.2.6 2.4.5 3.6.2.1 0 .2-.2.2-.2V13c-.4 0-.7.1-.9.1-1 0-1.5-.4-1.6-1.4-.1-1.6-.1-3.2-.1-4.8 0-.3.2-.3.4-.3h2c.1 0 .3-.1.3-.2.2-.6.2-1.1.2-1.7zm-32 2.2c.8-.4 1.6-.6 2.4-.4.5.1 1 .2 1.6.3.1-.5.2-1 .4-1.4.1-.3 0-.4-.3-.5-2.1-.6-4.2-.5-6.1.6-3.1 1.8-3.3 6.7-.3 8.6 2 1.3 4.3 1.2 6.5.6.1 0 .2-.2.2-.3-.1-.5-.2-1-.3-1.4-.9.1-1.7.2-2.4.2-1.5 0-2.8-1-3.2-2.3-.4-1.7.2-3.2 1.5-4zm23.4-2.4c-1.3 0-2.4.6-3 1.8-.1.1-.1.2-.2.4H98c0-.6-.1-1.2-.1-1.8h-2.2v9.6c0 .4.1.6.5.5h1.7c.4 0 .5-.1.5-.5V9.6c0-1.4.8-2.4 2.2-2.6.4-.1.8 0 1.3 0V5.2c-.1-.6-.2-.7-.6-.7zm-46.9.8V5l-.2-.2h-1.7v10.1h1.4c.4 0 .6-.1.6-.5-.2-3-.1-6.1-.1-9.1zm17.1 0v-.5h-1.4c-.4 0-.6.1-.6.5v9.3c0 .2.1.3.3.3h1.1c.4 0 .5-.1.5-.5 0-3 .1-6.1.1-9.1zM53.4.8c-.7 0-1.3.5-1.3 1.1 0 .6.5 1.1 1.2 1.1s1.2-.5 1.2-1.1c.1-.7-.4-1.1-1.1-1.1zm17.1 0c-.7 0-1.3.4-1.3 1.1 0 .6.5 1.1 1.2 1.1s1.3-.5 1.3-1.1c0-.6-.5-1.1-1.2-1.1zm10.7 50.1h-.6L80 54h.6c.7 0 1.2-.2 1.6-.5.4-.3.6-.8.6-1.4 0-.4-.1-.8-.4-1-.2-.1-.6-.2-1.2-.2zm-54.9 4c-.5 0-.8.4-.8.8 0 .3.2.6.4.7v.7c0 .2.2.4.4.4s.4-.2.4-.4v-.7c.2-.2.4-.4.4-.7 0-.4-.4-.8-.8-.8z"/><path class="st0" d="M58 39.8c-20.3 0-39.8 1.1-58 3v19c0 4.4 3.6 8 8 8h100c4.4 0 8-3.6 8-8v-19c-18.2-2-37.7-3-58-3zm-26.9 14v4.4c0 1.3-1 2.3-2.3 2.3h-5.2c-1.3 0-2.3-1-2.3-2.3v-5.1c0-.3 0-.5.1-.8h8.4c-.4-1.4-1.6-2.4-3.1-2.4h-.8c-1.2 0-2.3.7-2.9 1.7h-1.3c.6-1.7 2.3-2.9 4.2-2.9h.8c2.5 0 4.5 2 4.5 4.5v.6zm12.2-.9c.2.2.6.6 1.2 1s1.1.9 1.4 1.4c.3.5.5 1.1.5 1.8 0 1.1-.4 2-1.2 2.6-.8.6-1.8 1-3.2 1-1.2 0-2.1-.2-2.8-.7v-2.2c1 .6 2 .9 2.8.9.6 0 1.1-.1 1.4-.3.3-.2.5-.5.5-.9 0-.2 0-.4-.1-.6-.1-.2-.2-.3-.3-.5-.1-.1-.5-.4-1-.8-.7-.5-1.2-1-1.5-1.6-.3-.5-.4-1.1-.4-1.7 0-.7.2-1.3.5-1.8s.8-1 1.4-1.3c.6-.3 1.3-.4 2.1-.4 1.1 0 2.2.3 3.1.8l-.9 1.8c-.8-.4-1.6-.6-2.3-.6-.4 0-.8.1-1.1.4-.3.1-.4.4-.4.8 0 .3.1.6.3.9zm12.7-2h-4.1l-.5 2.5h3.8l-.4 2H51l-.6 3h4.1l-.4 2h-6.5l2.5-11.6h6.5l-.6 2.1zm9.1.6c-.6-.3-1-.5-1.4-.6-.4-.1-.7-.2-1.1-.2-.7 0-1.3.2-1.9.6-.6.4-1 1.1-1.3 1.9-.3.8-.5 1.7-.5 2.7 0 .9.2 1.5.5 2 .4.4.9.6 1.7.6.8 0 1.7-.2 2.7-.6V60c-1.1.4-2.1.6-3.2.6-1.3 0-2.4-.4-3.1-1.2-.7-.8-1.1-1.9-1.1-3.4 0-1.4.3-2.7.8-3.8.5-1.2 1.3-2.1 2.2-2.7.9-.6 2-.9 3.2-.9.7 0 1.2.1 1.8.2.5.1 1.1.3 1.6.7l-.9 2zm7.9 8c-.9.7-2 1.1-3.3 1.1-1.1 0-2-.3-2.6-.9-.6-.6-1-1.4-1-2.4 0-.4 0-.7.1-1.1l1.6-7.3h2.4l-1.5 7.3c-.1.4-.1.7-.1 1 0 .9.5 1.4 1.5 1.4.7 0 1.2-.2 1.5-.6.4-.4.7-1 .8-1.8l1.5-7.3h2.4l-1.6 7.5c-.3 1.4-.8 2.4-1.7 3.1zm11.8.9h-2.6L80.5 56h-.9l-.9 4.4h-2.4l2.5-11.6h2.8c1.3 0 2.2.3 2.8.8s.9 1.3.9 2.4c0 .8-.2 1.6-.7 2.2-.4.6-1.1 1-1.9 1.3l2.1 4.9zm9.4-9.5h-4.1l-.5 2.5h3.8l-.4 2h-3.8l-.6 3h4.1l-.4 2h-6.5l2.5-11.6h6.5l-.6 2.1z"/></svg>