<svg width="62" height="62" xmlns="http://www.w3.org/2000/svg" xmlns:xlink="http://www.w3.org/1999/xlink"><defs><filter x="-50%" y="-50%" width="200%" height="200%" filterUnits="objectBoundingBox" id="a"><feOffset dy="1" in="SourceAlpha" result="shadowOffsetOuter1"/><feGaussianBlur stdDeviation="2.5" in="shadowOffsetOuter1" result="shadowBlurOuter1"/><feColorMatrix values="0 0 0 0 0.196078431 0 0 0 0 0.650980392 0 0 0 0 0.996078431 0 0 0 0.2 0" in="shadowBlurOuter1"/></filter><filter x="-50%" y="-50%" width="200%" height="200%" filterUnits="objectBoundingBox" id="c"><feOffset dy="1" in="SourceAlpha" result="shadowOffsetOuter1"/><feGaussianBlur stdDeviation="2.5" in="shadowOffsetOuter1" result="shadowBlurOuter1"/><feColorMatrix values="0 0 0 0 0.196078431 0 0 0 0 0.650980392 0 0 0 0 0.996078431 0 0 0 0.2 0" in="shadowBlurOuter1"/></filter><filter x="-50%" y="-50%" width="200%" height="200%" filterUnits="objectBoundingBox" id="e"><feOffset dy="1" in="SourceAlpha" result="shadowOffsetOuter1"/><feGaussianBlur stdDeviation="2.5" in="shadowOffsetOuter1" result="shadowBlurOuter1"/><feColorMatrix values="0 0 0 0 0.196078431 0 0 0 0 0.650980392 0 0 0 0 0.996078431 0 0 0 0.2 0" in="shadowBlurOuter1"/></filter><filter x="-50%" y="-50%" width="200%" height="200%" filterUnits="objectBoundingBox" id="g"><feOffset dy="1" in="SourceAlpha" result="shadowOffsetOuter1"/><feGaussianBlur stdDeviation="2.5" in="shadowOffsetOuter1" result="shadowBlurOuter1"/><feColorMatrix values="0 0 0 0 0.196078431 0 0 0 0 0.650980392 0 0 0 0 0.996078431 0 0 0 0.2 0" in="shadowBlurOuter1"/></filter><filter x="-50%" y="-50%" width="200%" height="200%" filterUnits="objectBoundingBox" id="i"><feOffset dy="1" in="SourceAlpha" result="shadowOffsetOuter1"/><feGaussianBlur stdDeviation="2.5" in="shadowOffsetOuter1" result="shadowBlurOuter1"/><feColorMatrix values="0 0 0 0 0.196078431 0 0 0 0 0.650980392 0 0 0 0 0.996078431 0 0 0 0.2 0" in="shadowBlurOuter1"/></filter><path d="M40.619 46.23c-4.218 0-7.085-2.209-7.284-5.677h2.745c.214 1.982 2.13 3.295 4.754 3.295 2.517 0 4.326-1.313 4.326-3.107 0-1.553-1.099-2.491-3.642-3.133l-2.478-.616c-3.562-.884-5.182-2.504-5.182-5.169 0-3.28 2.866-5.557 6.95-5.557 3.99 0 6.775 2.29 6.882 5.583h-2.718c-.188-1.982-1.807-3.2-4.219-3.2-2.397 0-4.057 1.231-4.057 3.012 0 1.406 1.044 2.237 3.589 2.879l2.089.522c3.977.964 5.611 2.531 5.611 5.343-.001 3.589-2.84 5.825-7.366 5.825z" id="b"/><path d="M22.424 46.23c-5.53 0-8.999-3.843-8.999-9.976 0-6.133 3.468-9.988 8.999-9.988 5.53 0 8.985 3.855 8.985 9.988 0 6.132-3.455 9.976-8.985 9.976zm0-17.502c-3.79 0-6.16 2.906-6.16 7.525 0 4.606 2.37 7.512 6.16 7.512 3.776 0 6.159-2.906 6.159-7.512.001-4.62-2.383-7.525-6.16-7.525z" id="d"/><path d="M32.663 22.267a2.518 2.518 0 01-.626.078c-.316 0-.603-.045-.865-.135a1.994 1.994 0 01-.675-.379 1.698 1.698 0 01-.44-.591 1.838 1.838 0 01-.157-.772c0-.555.207-.989.62-1.301.413-.313 1.012-.495 1.797-.545l1.706-.099v-.488c0-.365-.116-.644-.347-.833-.231-.19-.558-.285-.982-.285-.17 0-.33.022-.478.064a1.315 1.315 0 00-.39.183 1.05 1.05 0 00-.431.657h-1.183a1.68 1.68 0 01.207-.775c.13-.237.306-.443.53-.618.224-.175.486-.31.79-.407a3.24 3.24 0 01.99-.146c.385 0 .733.047 1.045.146.313.098.58.235.801.416.222.18.392.398.512.652.12.255.181.54.181.853v4.339h-1.204v-1.054h-.03a1.9 1.9 0 01-.34.463 2.182 2.182 0 01-1.031.577zm1.36-2.361v-.495l-1.537.106c-.435.027-.762.12-.981.276a.761.761 0 00-.33.655c0 .272.108.488.327.649.217.162.509.241.873.241.233 0 .451-.036.652-.107a1.6 1.6 0 00.525-.298 1.335 1.335 0 00.471-1.027z" id="f"/><path d="M19.687 15.957h1.206v1.071h.023a1.782 1.782 0 01.7-.835c.154-.1.326-.175.511-.227.187-.052.383-.078.589-.078.442 0 .817.105 1.12.316.305.211.522.515.65.911h.03c.08-.19.188-.361.32-.512a2.047 2.047 0 011.016-.631 2.4 2.4 0 01.643-.084c.31 0 .593.049.847.149.255.1.471.238.652.419.18.18.32.4.417.658.096.257.146.543.146.859v4.31h-1.258v-4.008c0-.415-.107-.738-.321-.965-.213-.227-.518-.34-.914-.34-.194 0-.371.034-.533.102-.16.068-.301.163-.417.286a1.285 1.285 0 00-.273.44c-.067.17-.1.357-.1.56v3.924h-1.24v-4.111c0-.183-.03-.347-.086-.495a1.063 1.063 0 00-.241-.379 1.05 1.05 0 00-.382-.241 1.426 1.426 0 00-.504-.085c-.194 0-.373.036-.54.108a1.272 1.272 0 00-.425.3 1.362 1.362 0 00-.276.453c-.063.174-.167.365-.167.57v3.879h-1.193v-6.324z" id="h"/><path d="M36.824 17.782c.141-.398.34-.74.6-1.022.258-.284.57-.502.934-.655.364-.154.77-.23 1.217-.23.403 0 .768.06 1.092.18.325.12.602.282.835.486.233.204.418.441.554.713.136.272.217.56.244.862h-1.204a1.55 1.55 0 00-.163-.466 1.273 1.273 0 00-.308-.373 1.447 1.447 0 00-.452-.247 1.76 1.76 0 00-.585-.09c-.256 0-.489.052-.695.155a1.536 1.536 0 00-.534.437 2.067 2.067 0 00-.343.686 3.09 3.09 0 00-.123.9c0 .34.041.647.123.916.081.27.197.498.347.684.15.187.33.33.54.428.21.098.44.149.692.149.412 0 .748-.097 1.008-.29.26-.194.428-.478.506-.85h1.206c-.035.329-.126.63-.274.901a2.324 2.324 0 01-.572.696 2.554 2.554 0 01-.83.445 3.356 3.356 0 01-1.048.158c-.451 0-.858-.075-1.223-.224a2.627 2.627 0 01-.939-.644 2.881 2.881 0 01-.602-1.019c-.142-.4-.213-.85-.213-1.352a3.9 3.9 0 01.21-1.334z" id="j"/></defs><g fill="none" fill-rule="evenodd"><path d="M31 .5C48.018.5 61.5 13.983 61.5 31c0 17.018-13.483 30.5-30.5 30.5S.5 48.018.5 31C.5 13.983 13.983.5 31 .5zm0 1C14.535 1.5 1.5 14.535 1.5 31c0 16.466 13.035 29.5 29.5 29.5S60.5 47.466 60.5 31C60.5 14.535 47.466 1.5 31 1.5z" fill="#FFF" fill-rule="nonzero"/><use fill="#000" filter="url(#a)" xlink:href="#b"/><use fill="#FFF" xlink:href="#b"/><use fill="#000" filter="url(#c)" xlink:href="#d"/><use fill="#FFF" xlink:href="#d"/><use fill="#000" filter="url(#e)" xlink:href="#f"/><use fill="#FFF" xlink:href="#f"/><use fill="#000" filter="url(#g)" xlink:href="#h"/><use fill="#FFF" xlink:href="#h"/><use fill="#000" filter="url(#i)" xlink:href="#j"/><use fill="#FFF" xlink:href="#j"/></g></svg>