<svg width="107" height="30" xmlns="http://www.w3.org/2000/svg"><g fill="#FFF"><path d="M104.931 29.373h-.155v.41h-.077v-.41h-.155v-.076h.394l-.007.076zm.606.41h-.078v-.396l-.14.348h-.085l-.14-.348v.397h-.078v-.487h.12l.14.348.141-.348h.12v.487zm-74.205 0h-1.078V17.605h1.078v12.18zm8.193-12.179a8.463 8.463 0 012.776.425c.783.255 1.503.67 2.113 1.218a5.337 5.337 0 011.332 1.92 7.074 7.074 0 010 5.053 5.33 5.33 0 01-1.332 1.921c-.61.548-1.33.963-2.113 1.218a8.463 8.463 0 01-2.776.425h-4.502v-12.18h4.502zm-3.424 1.01v10.16h3.424a7.181 7.181 0 002.381-.361 4.831 4.831 0 001.733-1.023 4.262 4.262 0 001.064-1.601 6.268 6.268 0 000-4.176 4.304 4.304 0 00-1.064-1.608 4.76 4.76 0 00-1.733-1.023 7.274 7.274 0 00-2.374-.355l-3.431-.014zm23.249-1.15a6.7 6.7 0 012.944.676 5.55 5.55 0 011.17.786c.347.305.648.656.895 1.044l-.895.592a4.33 4.33 0 00-.754-.863 4.687 4.687 0 00-.958-.654 4.97 4.97 0 00-1.127-.41 5.367 5.367 0 00-1.247-.147 5.526 5.526 0 00-2.05.376 4.882 4.882 0 00-1.649 1.058 4.951 4.951 0 00-1.099 1.642 5.815 5.815 0 000 4.246 4.944 4.944 0 001.1 1.642c.47.46 1.031.82 1.648 1.058a5.526 5.526 0 002.05.376c.417.001.833-.045 1.24-.14a4.756 4.756 0 002.113-1.057 4.19 4.19 0 00.754-.87l.88.633a5.205 5.205 0 01-.908 1.023 5.64 5.64 0 01-1.163.773 6.057 6.057 0 01-1.366.494 6.96 6.96 0 01-4.023-.292 6.06 6.06 0 01-2-1.28 5.883 5.883 0 01-1.325-1.97 6.84 6.84 0 010-5.032 5.883 5.883 0 011.324-1.97 6.06 6.06 0 012.001-1.28 6.715 6.715 0 012.473-.453h-.028zm8.637 5.569a3.154 3.154 0 011.282-1.176c.258-.125.53-.218.81-.279.278-.06.561-.09.846-.09.48-.005.956.073 1.409.23.41.141.786.364 1.106.654.309.29.55.644.704 1.037.176.443.263.916.254 1.392v5.018H73.39v-4.712a3.31 3.31 0 00-.176-1.114 2.209 2.209 0 00-1.36-1.37 3.22 3.22 0 00-1.127-.182 2.991 2.991 0 00-1.085.195 2.61 2.61 0 00-.88.557 2.623 2.623 0 00-.592.863 2.755 2.755 0 00-.218 1.1v4.663h-1V17.29h1l.035 5.742zm12.99-1.545a3.822 3.822 0 011.537.306c.465.2.882.494 1.226.863.355.385.632.834.817 1.322.205.539.31 1.11.31 1.685v.41H77.92c.027.439.137.868.324 1.267.17.358.41.68.705.947a3 3 0 00.993.584c.382.136.785.204 1.19.202a3.716 3.716 0 001.558-.313 4.39 4.39 0 001.24-.856l.535.696a4.92 4.92 0 01-.803.654 4.22 4.22 0 01-1.705.633c-.294.041-.59.062-.888.063a4.422 4.422 0 01-1.67-.306 3.893 3.893 0 01-1.317-.863 3.892 3.892 0 01-.86-1.33 4.592 4.592 0 01-.31-1.712 4.524 4.524 0 01.31-1.698 4.03 4.03 0 01.84-1.364 3.88 3.88 0 011.303-.877 4.186 4.186 0 011.641-.334l-.028.02zm-1.154 1.092a2.914 2.914 0 00-.923.592 3.07 3.07 0 00-.649.898c-.172.362-.281.75-.324 1.148h5.925a3.515 3.515 0 00-.289-1.162 2.922 2.922 0 00-.62-.898 2.78 2.78 0 00-1.965-.793 3.055 3.055 0 00-1.155.215zm11.187-1.092a4.436 4.436 0 011.712.327c.515.21.976.534 1.346.946l-.649.696a3.622 3.622 0 00-1.084-.744 3.304 3.304 0 00-1.346-.265 3.218 3.218 0 00-1.261.25c-.382.163-.727.4-1.015.697a3.13 3.13 0 00-.704 1.044 3.709 3.709 0 000 2.638 3.066 3.066 0 001.69 1.719c.4.168.828.253 1.262.25.468.005.932-.09 1.36-.278.407-.18.779-.43 1.098-.738l.627.696c-.371.41-.83.734-1.345.947a4.4 4.4 0 01-1.705.327 4.45 4.45 0 01-1.712-.32 3.977 3.977 0 01-2.22-2.22 4.659 4.659 0 010-3.355 3.97 3.97 0 012.22-2.228 4.44 4.44 0 011.74-.41l-.014.02zm6.432 3.584h1.346l3.522-3.48h1.268l-3.945 3.863 4.016 4.322h-1.275l-3.523-3.835h-1.345v3.835h-1.057V17.249h1l-.007 7.823zM40.68 11.347V7.171a2.46 2.46 0 00-.719-1.914 2.525 2.525 0 00-1.93-.73 2.617 2.617 0 00-2.367 1.183 2.48 2.48 0 00-2.226-1.184 2.235 2.235 0 00-1.973.989v-.822H30v6.654h1.48V7.658c-.064-.46.083-.925.402-1.267a1.588 1.588 0 011.246-.5c.972 0 1.465.626 1.465 1.753v3.703h1.48V7.658a1.55 1.55 0 01.406-1.264 1.595 1.595 0 011.242-.503c1 0 1.48.626 1.48 1.753v3.703h1.48zm21.882-6.674h-2.395V2.654h-1.48v2.019h-1.366v1.301h1.366V9.01c0 1.545.606 2.463 2.34 2.463a3.47 3.47 0 001.831-.515l-.423-1.238a2.727 2.727 0 01-1.282.431c-.704 0-.972-.445-.972-1.114V5.974h2.381V4.673zm12.498-.167a1.992 1.992 0 00-1.775.974v-.807h-1.452v6.653H73.3v-3.73c0-1.1.479-1.712 1.409-1.712.313-.005.624.052.916.167l.45-1.392a3.17 3.17 0 00-1.042-.181l.028.028zm-18.895.696a5.085 5.085 0 00-2.747-.696c-1.705 0-2.818.807-2.818 2.13 0 1.085.817 1.753 2.325 1.962l.704.097c.803.112 1.184.32 1.184.696 0 .515-.536.808-1.536.808a3.616 3.616 0 01-2.24-.696l-.705 1.127a4.903 4.903 0 002.917.863c1.944 0 3.071-.904 3.071-2.171s-.887-1.782-2.353-1.99l-.704-.098c-.634-.084-1.142-.209-1.142-.654 0-.446.48-.78 1.283-.78a4.38 4.38 0 012.113.57l.648-1.168zm39.248-.696a1.992 1.992 0 00-1.775.974v-.807h-1.451v6.653h1.465v-3.73c0-1.1.479-1.712 1.409-1.712.313-.005.625.052.916.167l.45-1.392a3.17 3.17 0 00-1.042-.181l.028.028zm-18.88 3.48a3.34 3.34 0 001.018 2.524 3.426 3.426 0 002.574.955 3.55 3.55 0 002.424-.793l-.705-1.17a2.982 2.982 0 01-1.76.6 2.147 2.147 0 01-1.99-2.13c0-1.114.866-2.04 1.99-2.13a2.982 2.982 0 011.76.598l.705-1.169a3.55 3.55 0 00-2.424-.793 3.426 3.426 0 00-2.574.956 3.34 3.34 0 00-1.019 2.524v.028zm13.723 0V4.659h-1.465v.807a2.57 2.57 0 00-2.114-.974c-1.945 0-3.522 1.558-3.522 3.48s1.577 3.48 3.522 3.48a2.57 2.57 0 002.114-.975v.808h1.465v-3.3zm-3.344-1.892a2.022 2.022 0 011.96 2.042 2.024 2.024 0 01-2.026 1.98 2.034 2.034 0 01-1.493-.624 1.983 1.983 0 01-.55-1.506 2.027 2.027 0 012.11-1.892zM67.12 4.506c-1.945.026-3.5 1.606-3.473 3.528.027 1.922 1.627 3.458 3.572 3.431a4.125 4.125 0 002.762-.932l-.705-1.072a3.23 3.23 0 01-1.958.696 1.861 1.861 0 01-2.015-1.629h5.009v-.556c0-2.088-1.31-3.48-3.199-3.48l.007.014zm0 1.294a1.68 1.68 0 011.191.459c.32.302.505.718.514 1.156h-3.522a1.725 1.725 0 011.79-1.615h.027zM103.874 8V2h-1.465v3.48a2.57 2.57 0 00-2.114-.974c-1.945 0-3.522 1.558-3.522 3.48 0 1.921 1.577 3.48 3.522 3.48a2.57 2.57 0 002.114-.975v.807h1.465V8zm-5.453 0a2.027 2.027 0 012.11-1.892 2.022 2.022 0 011.959 2.042 2.024 2.024 0 01-2.026 1.98 2.034 2.034 0 01-1.493-.624 1.983 1.983 0 01-.55-1.507zM48.944 8V4.672H47.48v.807a2.57 2.57 0 00-2.114-.974c-1.945 0-3.522 1.558-3.522 3.48 0 1.921 1.577 3.48 3.522 3.48a2.57 2.57 0 002.114-.975v.807h1.465V8zm-5.453 0a2.027 2.027 0 012.11-1.892 2.022 2.022 0 011.958 2.042 2.024 2.024 0 01-2.025 1.98 2.034 2.034 0 01-1.493-.624 1.983 1.983 0 01-.55-1.507zm63.089 2.408c.08.032.155.08.218.139a.64.64 0 010 .933.706.706 0 01-.218.139.67.67 0 01-.268.055.705.705 0 01-.634-.403.647.647 0 01.366-.863.712.712 0 01.268-.05.712.712 0 01.268.05zm-.268 1.127a.505.505 0 00.366-.153.51.51 0 000-.696.521.521 0 00-.366-.153.534.534 0 00-.374.153.51.51 0 000 .696.522.522 0 00.17.111c.064.03.133.047.204.049v-.007zm.042-.828a.284.284 0 01.183.056c.044.035.068.09.064.146a.166.166 0 01-.05.125.248.248 0 01-.148.063l.205.23h-.162l-.19-.23h-.064v.23h-.134v-.613l.296-.007zm-.155.118v.167h.155a.15.15 0 00.085 0 .069.069 0 000-.062.069.069 0 000-.063.15.15 0 00-.085 0l-.155-.042z"/><path d="M12.663 1.653l-.031.025a7.86 7.86 0 012.982 6.169 7.86 7.86 0 01-2.982 6.169l.014.011H9.6V1.653h3.063z" fill-opacity=".8"/><path d="M9.65 7.848a7.848 7.848 0 012.982-6.17 7.78 7.78 0 00-10.56.845 7.876 7.876 0 000 10.647 7.78 7.78 0 0010.56.846A7.848 7.848 0 019.65 7.848zm15.03 4.781v-.315h.118v-.065h-.3v.065h.118v.315h.064zm.583 0v-.38h-.09l-.107.271-.106-.271h-.094v.38h.066v-.285l.099.247h.068l.098-.247v.288l.066-.003z"/><path d="M25.263 7.848a7.85 7.85 0 01-4.395 7.057 7.775 7.775 0 01-8.236-.89 7.86 7.86 0 002.982-6.168 7.86 7.86 0 00-2.982-6.169 7.775 7.775 0 018.236-.89 7.85 7.85 0 014.395 7.058v.002z" fill-opacity=".9"/></g></svg>