<svg width="77" height="32" xmlns="http://www.w3.org/2000/svg" xmlns:xlink="http://www.w3.org/1999/xlink"><defs><filter x="-31.4%" y="-25.4%" width="162.7%" height="150.8%" filterUnits="objectBoundingBox" id="a"><feOffset in="SourceAlpha" result="shadowOffsetOuter1"/><feGaussianBlur stdDeviation="2" in="shadowOffsetOuter1" result="shadowBlurOuter1"/><feColorMatrix values="0 0 0 0 0 0 0 0 0 0 0 0 0 0 0 0 0 0 0.2 0" in="shadowBlurOuter1"/></filter><filter x="-30.6%" y="-25.4%" width="161.2%" height="150.8%" filterUnits="objectBoundingBox" id="c"><feOffset in="SourceAlpha" result="shadowOffsetOuter1"/><feGaussianBlur stdDeviation="2" in="shadowOffsetOuter1" result="shadowBlurOuter1"/><feColorMatrix values="0 0 0 0 0 0 0 0 0 0 0 0 0 0 0 0 0 0 0.2 0" in="shadowBlurOuter1"/></filter><path d="M16.141 12.75c.03 3.575 3.116 4.757 3.153 4.77-.018.083-.483 1.705-1.64 3.353-.966 1.45-1.979 2.867-3.587 2.893-1.562.036-2.087-.923-3.879-.923-1.808 0-2.368.897-3.866.96-1.531.056-2.701-1.549-3.703-2.986C.617 17.883-.94 12.548 1.15 8.918c1.01-1.78 2.857-2.927 4.83-2.957C7.513 5.929 8.936 7 9.878 7c.924 0 2.684-1.28 4.497-1.09.76.023 2.919.302 4.312 2.34-.113.068-2.573 1.519-2.546 4.5zm-2.95-8.77c-.841.996-2.187 1.758-3.497 1.66-.171-1.344.492-2.772 1.236-3.644.84-.99 2.298-1.747 3.465-1.799.153 1.396-.399 2.772-1.205 3.784z" id="b"/><path d="M53.206 17.705c0 .54.441.984.98.984h.98v3.442a1.47 1.47 0 102.94 0V18.69h1.961v3.442a1.47 1.47 0 102.94 0V18.69h.98c.54 0 .98-.443.98-.984V7.869h-11.76v9.836zm-2.45-9.836a1.47 1.47 0 00-1.47 1.475v6.886a1.47 1.47 0 102.94 0V9.344a1.47 1.47 0 00-1.47-1.475zm16.662 0a1.47 1.47 0 00-1.47 1.475v6.886a1.47 1.47 0 102.94 0V9.344a1.47 1.47 0 00-1.47-1.475zM63.82.846a.488.488 0 000-.698.484.484 0 00-.696 0l-1.45 1.455a5.707 5.707 0 00-2.588-.62 5.79 5.79 0 00-2.607.62L55.02.148a.484.484 0 00-.697 0 .488.488 0 000 .698l1.284 1.288a5.892 5.892 0 00-2.4 4.751h11.76c0-1.957-.95-3.688-2.42-4.76L63.82.845zm-7.184 4.072a.49.49 0 01-.49-.49v-.004a.49.49 0 01.98 0v.004c0 .27-.22.49-.49.49zm4.9 0a.49.49 0 01-.49-.49v-.004a.49.49 0 01.98 0v.004c0 .27-.22.49-.49.49z" id="d"/></defs><g fill="none" fill-rule="evenodd"><g fill-rule="nonzero" transform="translate(4 4)"><use fill="#000" filter="url(#a)" xlink:href="#b"/><use fill="#4B9DF3" fill-rule="evenodd" xlink:href="#b"/></g><g transform="translate(4 4)"><use fill="#000" filter="url(#c)" xlink:href="#d"/><use fill="#4B9DF4" xlink:href="#d"/></g><path fill="#4C9DF4" opacity=".6" d="M39.284 15.746H44v1.53h-4.716V22h-1.591v-4.724H33v-1.53h4.693V11h1.591z"/></g></svg>