<svg width="38" height="43" fill="none" xmlns="http://www.w3.org/2000/svg"><path fill-rule="evenodd" clip-rule="evenodd" d="M17.66 1.331L2.294 10.264c-1.017.59-1.543 1.62-1.537 2.741l.028 17.983c-.032.5.16 1.113.401 1.535.242.421.638.834 1.119 1.117l15.383 8.895c.927.505 2.135.526 3.092-.03l15.364-8.932c.957-.556 1.577-1.56 1.572-2.682l.04-17.862a3.152 3.152 0 00-1.554-2.712L20.75 1.301c-.928-.505-2.135-.526-3.092.03z" fill="url(#paint0_radial)"/><mask id="a" maskUnits="userSpaceOnUse" x="0" y="0" width="38" height="43"><path fill-rule="evenodd" clip-rule="evenodd" d="M17.66 1.331L2.294 10.264c-1.017.59-1.543 1.62-1.537 2.741l.028 17.983c-.032.5.16 1.113.401 1.535.242.421.638.834 1.119 1.117l15.383 8.895c.927.505 2.135.526 3.092-.03l15.364-8.932c.957-.556 1.577-1.56 1.572-2.682l.04-17.862a3.152 3.152 0 00-1.554-2.712L20.75 1.301c-.928-.505-2.135-.526-3.092.03z" fill="#fff"/></mask><g mask="url(#a)" fill-rule="evenodd" clip-rule="evenodd"><path d="M22.034 42.356a2.318 2.318 0 01-2.778-2.272V25.321c0-1.643.87-3.163 2.286-3.996L36.01 12.82a1.159 1.159 0 011.746 1v19.349l-14.8 9-.922.187z" fill="url(#paint1_linear)" fill-opacity=".25"/><path d="M2.496 9.657a2.318 2.318 0 00.492 3.636l13.907 8.015a4.636 4.636 0 004.7-.041l14.776-8.864a1.482 1.482 0 00.646-1.734L19.257.169 2.607 9.544l-.111.113z" fill="url(#paint2_linear)" fill-opacity=".35" style="mix-blend-mode:overlay"/><path d="M10.13 30.12c0 .3.243.543.542.543h2.91c.3 0 .542-.243.542-.542V18.77c0-.3-.243-.542-.542-.542h-2.91c-.3 0-.542.243-.542.542v11.35zm7.099-2.415c0 .3.242.542.542.542h2.91a.542.542 0 00.542-.542v-11.35c0-.3-.243-.542-.543-.542h-2.909c-.3 0-.543.243-.543.542v11.35zm7.28-2.819c0 .3.243.542.542.542h2.91c.3 0 .542-.243.542-.542v-11.35c0-.3-.243-.542-.542-.542h-2.91c-.3 0-.542.243-.542.542v11.35z" fill="#fff"/></g><defs><linearGradient id="paint1_linear" x1="39.355" y1="24.793" x2="17.369" y2="15.147" gradientUnits="userSpaceOnUse"><stop stop-color="#4F65DE" stop-opacity=".01"/><stop offset="1" stop-color="#1E073C"/></linearGradient><linearGradient id="paint2_linear" x1=".24" y1="-3.65" x2="-2.968" y2="24.872" gradientUnits="userSpaceOnUse"><stop stop-color="#447DE8" stop-opacity=".1"/><stop offset="1" stop-color="#D7E4FF"/></linearGradient><radialGradient id="paint0_radial" cx="0" cy="0" r="1" gradientUnits="userSpaceOnUse" gradientTransform="matrix(-34.86423 -19.2858 20.74336 -37.49916 10.82 4.672)"><stop stop-color="#379BF4"/><stop offset="1" stop-color="#1C56BF"/></radialGradient></defs></svg>