<svg version="1.1" id="Layer_1" xmlns="http://www.w3.org/2000/svg" x="0" y="0" viewBox="0 0 67.7 26" xml:space="preserve"><style>.st0{fill:#fff}</style><path class="st0" d="M67.7 10c0 .1-.1.1 0 0-.4 1.2-1.2 1.8-2.3 2.1-1.1.2-2.1.2-3.1-.1-1.1-.3-1.6-1.5-1.7-2.4 0-.1 0-.1.1-.1.7 0 1.3-.1 2-.1.2 0 .2.1.2.2.2.9.8 1.3 1.7 1.1.4-.1.7-.4.7-.7 0-.4-.1-.6-.5-.8-.4-.2-.9-.3-1.4-.4-.5-.1-.9-.3-1.4-.5-.8-.4-1.2-1-1.2-1.9 0-.9.5-1.6 1.4-2 .8-.4 1.6-.4 2.4-.3.3 0 .6.1.9.1 1.1.3 1.7 1 1.9 2.2-.7 0-1.4.1-2.1.1-.1 0-.2 0-.2-.2-.2-.8-.8-.9-1.4-.8-.3 0-.6.3-.6.5s.1.4.5.5c.8.2 1.5.3 2.3.6.7.3 1.3.6 1.7 1.3.1.2.1.4.2.5-.1.5-.1.8-.1 1.1zm-37 13.5c-.8 0-1.5-.3-2-.9-.9-1.2-1.9-2.4-2.9-3.6-.3-.3-.3-.7-.1-1 .3-.5.7-.9 1.2-1.2.2-.1.4 0 .5.1 1 .9 2 1.7 2.9 2.6.3.3.4.3.6-.1 2.3-4.2 5.1-8 8.4-11.5.2-.2.5-.4.8-.5.9-.3 1.7-.4 2.5-.4.2 0 .4 0 .5.2.1.2-.1.3-.2.5-1.6 1.4-3 3.1-4.2 4.9-2.1 3.2-4.1 6.5-5.9 9.9-.4.8-1.1 1.1-1.9 1.1-.1-.1-.1-.1-.2-.1zM53.8 9.4c.3 0 .6 0 .8-.1.2 0 .3.1.3.3.2 1 1 1.2 1.8 1 .3-.1.6-.3.6-.7 0-.3-.2-.6-.5-.7-.6-.3-1.2-.3-1.8-.5-.4-.1-.8-.3-1.2-.5-1.5-.9-1.3-2.9.1-3.6.5-.3 1.1-.4 1.7-.4.9 0 1.7 0 2.5.4.7.4 1.1 1 1.2 1.8 0 .1 0 .2-.2.2-.6 0-1.3.1-1.9.1-.2 0-.2 0-.3-.2-.2-.7-.9-1-1.6-.7-.2.1-.4.3-.4.5 0 .3.2.4.4.5.7 0 1.3 0 1.8.2.4.1.9.3 1.3.5 1.7.8 1.6 2.7.6 3.8-.6.6-1.3.9-2 .9-.9.1-1.7.1-2.5-.2-1.3-.3-1.8-1.5-1.9-2.4 0-.1 0-.2.2-.2h1zM45.5 16c-.5 0-.9-.1-1.1-.6-.2-.5-.2-1.1.1-1.6.4-.5 1.8-.6 2.1.2.1.1.1.2-.1.2-.1 0-.2.1-.3.1-.1 0-.2 0-.3-.1-.1-.2-.3-.2-.5-.2-.2.1-.3.2-.4.4v.6c0 .2.2.4.4.4s.4-.1.5-.3c0-.1 0-.2.2-.2s.4.1.6.2c.1 0 0 .1 0 .2-.2.5-.6.7-1.2.7zm-8.7 1.2c.6-.9 1.2-1.9 1.8-2.8.3.7.6 1.3.9 1.9 0 .1.1.1-.1.2-.8.2-1.6.5-2.4.8-.1-.1-.2-.1-.2-.1zm29.5-3.8h.9c.2 0 .3.1.2.2v.2c0 .2 0 .2-.2.2-.6 0-.6 0-.6.6v1.1c0 .1 0 .2-.2.2-.6 0-.6 0-.6-.6v-1.1c0-.2-.1-.3-.3-.2h-.2c-.3.1-.3-.1-.3-.3 0-.3.1-.3.3-.3h1zm-14.6-6c-.2-1.9-1.3-3.3-3.5-3.3h-3.4c-.3 0-.3.1-.3.3v7.3c0 .2 0 .3.3.3h1.8c.8 0 1.6.1 2.3-.1 1.5-.2 2.5-1.1 2.8-2.6 0-.5.1-1.2 0-1.9zm-2.5 1.7c-.1.7-.5 1.1-1.2 1.1h-1.1V6.1c0-.1 0-.1.2-.1h.7c.8.1 1.2.4 1.3 1.2.2.7.2 1.3.1 1.9zm3.5 4.3H52c-.2 0-.2.1-.3.2l-.3 1.2c-.1-.2-.2-.4-.2-.6-.2-.8-.2-.8-1-.8-.2 0-.2.1-.2.2v1.9c0 .4 0 .4.4.4.2 0 .2-.1.2-.2v-1.4c.1.5.3.9.4 1.4 0 .2.1.3.3.3.2 0 .4 0 .4-.3.1-.5.2-.9.3-1.4h.1v1.2c0 .5 0 .5.5.4.1 0 .2-.1.2-.2v-2.2s0-.1-.1-.1zm12.1 2.3v-1.8c0-.5 0-.5-.5-.5-.2 0-.3 0-.3.3v1.1c-.2-.4-.5-.6-.6-.9-.2-.4-.5-.5-.8-.4-.2 0-.2.1-.2.2v1.8c0 .6 0 .6.6.5.2 0 .2 0 .2-.2v-1h.1c.2.3.4.5.6.8.2.3.4.5.8.4 0-.1.1-.1.1-.3zm-16.5-2.3c-.8 0-1.3.5-1.3 1.3s.5 1.3 1.3 1.3 1.3-.5 1.3-1.3c0-.9-.5-1.3-1.3-1.3zm.5 1.6c-.1.2-.2.4-.5.4s-.4-.1-.5-.4v-.5c.1-.3.2-.5.5-.5s.5.2.5.5v.5zm12.6-1c-.2-.7-.2-.7-.9-.6-.1 0-.2 0-.2.1l-.9 2.4h.6c.1 0 .2 0 .2-.2s.1-.3.3-.2h.4c.1 0 .2 0 .2.2s.1.3.3.2h.3c.2 0 .2 0 .1-.2 0-.5-.2-1.1-.4-1.7zm-.5.9h-.4c-.1 0 0-.1 0-.1.1-.2.1-.4.2-.7.1.3.2.5.2.7 0 .1.1.1 0 .1zm-6.2-1.5h-1.2c-.2 0-.2.1-.2.2v2.1c0 .1 0 .2.1.2.6.1.7 0 .7-.6 0-.4 0-.4.4-.4h.3c.4-.1.7-.4.7-.8s-.3-.7-.8-.7zm-.4 1.1c-.2 0-.2-.1-.2-.3 0-.1 0-.3.2-.2.2 0 .4 0 .4.3 0 .1-.2.2-.4.2zm3.4.8h-.8c-.1 0-.2 0-.2-.2v-1.2c0-.6 0-.6-.6-.6-.1 0-.2.1-.2.2v2c0 .2 0 .3.3.3h1.3c.4 0 .4 0 .4-.4 0-.1-.1-.1-.2-.1zm1.3-.6V14c0-.6 0-.6-.6-.6-.2 0-.2 0-.2.2v1.7c0 .6 0 .6.6.6.2 0 .2 0 .2-.2v-1z"/><path class="st0" d="M36.4 9.6L32.2.3c-.1-.3-.2-.3-.5-.3-1 .1-2 .1-3.1.2-3.1.2-6.2.3-9.3.5-3.1.2-6.2.4-9.4.5-2.4.2-4.8.3-7.3.4-.8.1-1.7.2-2.6.2v.1c.1.2.1.4.2.6L2 7.6c1.1 2.9 2.1 5.8 3.2 8.7 1.1 3.1 2.3 6.3 3.4 9.4 0 .1.1.2.2.3h.1c0-.1.1-.1.2-.1 4.9-1.5 9.8-3.1 14.6-4.6.7-.2 1.4-.4 2.2-.7-.3-.4-.6-.7-.9-1.1-.2-.2-.3-.4-.4-.7 0-.3-.2-.3-.4-.3-1.3 0-2.6-.1-3.9-.6-2.5-.9-3.7-3-3.3-5.7.3-1.7 1.4-2.9 2.9-3.7 1.4-.7 2.9-.8 4.5-.8.8 0 1.6.1 2.4.4.1 0 .2.1.2.2v2.6h-.1s-.1 0-.1-.1c-1-.5-2.1-.8-3.3-.6-1.3.1-2.3 1.1-2.4 2.3-.2 1.5.5 2.7 1.8 3.2 1 .4 2.1.3 3.2 0 .4-.1.8-.2 1.1-.3.1.2-.1.4.1.4.4.2.7.5 1 .8.2.1.3.3.5.4V8.2c.3-.2.3-.2.6-.2h3.4c.2 0 .3.1.3.3v6.1l.1-.1c1-1.5 2.1-2.9 3.2-4.3.1-.1.1-.2 0-.4zm-21.5 4.7c-.9.6-2 .8-3.1 1-.5 0-1 .1-1.5 0-.2 0-.3.1-.3.3v2.6c0 .2 0 .3-.3.3H6.2c-.2 0-.2-.1-.2-.3V8.4c0-.2 0-.3.2-.3h5.3c1 0 1.9.2 2.8.6 1.1.5 1.8 1.3 1.9 2.5.2 1.3-.2 2.3-1.3 3.1z"/><path class="st0" d="M11.6 10.4c-.5-.1-.9-.1-1.4-.1-.2 0-.2.1-.2.2v2.4c0 .1 0 .2.1.2.5 0 1 0 1.5-.2.6-.2.9-.7.9-1.3 0-.6-.3-1-.9-1.2z"/></svg>