<svg width="22" height="22" xmlns="http://www.w3.org/2000/svg"><g fill="#8FA5BF" fill-rule="evenodd"><path d="M4.458 18.766l.172-.12c.532-.374 1.065-.748 1.594-1.125.072-.051.123-.062.202-.008a8.15 8.15 0 003.137 1.294c.096.018.138.054.154.153.108.662.226 1.322.332 1.984.018.111.053.143.164.142.49-.006.981-.003 1.472-.003h.182a.673.673 0 00.018-.074c.115-.677.231-1.353.342-2.03.017-.105.053-.156.168-.176.233-.04.464-.095.693-.159.867-.24 1.665-.633 2.42-1.118.085-.055.143-.06.229.003.29.215.589.419.884.627l.843.593 1.277-1.276c-.022-.033-.052-.08-.084-.126l-1.133-1.607c-.047-.066-.082-.117-.024-.204.645-.968 1.11-2.011 1.303-3.166.014-.083.052-.116.14-.13.412-.063.823-.137 1.235-.208.299-.05.597-.103.898-.155v-1.784c-.042-.012-.08-.028-.12-.034-.564-.097-1.129-.191-1.693-.287-.142-.025-.318-.013-.413-.094-.082-.07-.075-.247-.103-.377-.221-1.033-.66-1.972-1.227-2.855-.057-.088-.057-.145.005-.231.382-.533.757-1.07 1.134-1.606.032-.046.062-.093.082-.124L17.465 3.21c-.566.398-1.146.802-1.72 1.214-.095.07-.157.07-.253.005a7.975 7.975 0 00-3.067-1.265c-.133-.024-.182-.08-.203-.213-.109-.687-.23-1.372-.348-2.064h-1.8c-.12.694-.243 1.38-.35 2.066-.02.141-.077.188-.205.211-1.062.188-2.028.617-2.94 1.18l-.259.16-1.86-1.31c-.395.396-.779.786-1.17 1.168-.086.084-.083.138-.017.23.388.542.768 1.089 1.153 1.632.049.068.075.12.019.204-.646.968-1.108 2.012-1.307 3.165-.008.046-.076.108-.124.117-.472.088-.945.166-1.418.247l-.72.126v1.787c.045.012.084.026.124.033l1.724.29c.387.063.39.061.472.445.22 1.033.653 1.974 1.221 2.857.068.104.062.173-.009.272-.386.536-.763 1.078-1.144 1.618-.038.054-.087.1-.014.171.403.4.802.803 1.208 1.21M17.562 2.07l2.32 2.32-.417.593c-.29.414-.578.83-.877 1.238-.077.106-.072.18-.01.289a8.95 8.95 0 01.95 2.293c.026.105.074.142.171.158.697.115 1.394.233 2.09.35.05.009.1.022.158.034v3.271l-.934.16c-.442.075-.885.15-1.327.223-.086.014-.13.05-.152.141a8.592 8.592 0 01-.96 2.321c-.063.107-.055.177.015.275.406.566.805 1.137 1.206 1.707l.085.126-2.318 2.319-.46-.324c-.46-.324-.921-.645-1.378-.974-.09-.065-.155-.077-.258-.018-.738.419-1.508.764-2.336.964-.09.022-.12.068-.135.157-.117.712-.244 1.423-.36 2.136-.017.11-.063.13-.16.129a411.635 411.635 0 00-3.005.001c-.117 0-.144-.044-.161-.149-.117-.712-.24-1.424-.366-2.134-.009-.048-.058-.115-.1-.126-.882-.22-1.705-.582-2.497-1.043l-1.96 1.38-2.321-2.32L3.098 16.1c.095-.135.187-.272.287-.404.049-.065.058-.117.014-.193a9.527 9.527 0 01-.998-2.391c-.012-.046-.085-.098-.137-.108-.625-.111-1.25-.215-1.876-.32L0 12.617V9.343l.934-.16c.443-.076.885-.15 1.328-.224.084-.013.128-.046.15-.14a8.66 8.66 0 01.969-2.335c.056-.095.05-.159-.013-.247-.408-.57-.81-1.146-1.215-1.72a4.731 4.731 0 01-.085-.127l2.318-2.318c.608.427 1.229.862 1.846 1.303.088.063.15.067.245.013.739-.417 1.508-.764 2.336-.965.087-.02.123-.06.138-.152.116-.713.243-1.424.36-2.136C9.326.03 9.365 0 9.467 0c1.003.004 2.005.004 3.007 0 .111 0 .146.033.163.144.115.707.242 1.413.358 2.12.016.1.057.14.149.162a8.848 8.848 0 012.337.961c.09.052.146.051.23-.01.618-.44 1.24-.875 1.851-1.306"/><path d="M11.016 14.827a3.84 3.84 0 003.848-3.834 3.84 3.84 0 00-3.838-3.86 3.84 3.84 0 00-3.855 3.842 3.84 3.84 0 003.845 3.852m4.725-3.849a4.722 4.722 0 01-4.73 4.725 4.722 4.722 0 01-4.717-4.722 4.722 4.722 0 014.73-4.724 4.721 4.721 0 014.717 4.721"/></g></svg>