<svg width="33" height="20" xmlns="http://www.w3.org/2000/svg"><g stroke="#8FA5BF" fill="none" fill-rule="evenodd"><path d="M15.848 1.365a.628.628 0 011.14 0l2.367 5.128 5.936.791c.502.067.723.67.382 1.045l-3.987 4.385.795 5.568a.628.628 0 01-.919.641l-5.144-2.77-5.143 2.77a.628.628 0 01-.912-.684l1.184-5.526L7.185 8.35a.628.628 0 01.36-1.066l5.937-.791 2.366-5.128z" stroke-width="2"/><path d="M22.401 4.577l.973-3.273a.523.523 0 01.95 0l1.972 4.273 4.947.66a.523.523 0 01.318.87l-3.323 3.655.663 4.64a.523.523 0 01-.766.534l-3.286-1.308m-17 0l-3.287 1.308a.523.523 0 01-.76-.57l.987-4.605-3.635-3.636a.523.523 0 01.3-.888l4.947-.66 1.973-4.273a.523.523 0 01.95 0l.972 3.273"/></g></svg>