<svg width="28" height="20" xmlns="http://www.w3.org/2000/svg"><path d="M11.098 9.27H8.909l-.667 3.338H10.3l-.263 1.397H7.97l-.79 4.007H5.838l.79-4.007H3.732l-.789 4.007H1.61l.78-4.007H.36l.264-1.397H2.68l.65-3.338H1.404l.272-1.387h1.926l.78-3.871h1.333l-.751 3.87h2.874l.78-3.87H9.96l-.77 3.87h2.17l-.263 1.388zm-6.416-.258l-.73 3.596h3.229l.657-3.596H4.682zM27.347 20h-4.224V8.434l.04-1.9.069-2.079c-.702.702-1.19 1.162-1.463 1.38l-2.297 1.847-2.037-2.543 6.44-5.127h3.472V20z" fill="#8FA5BF" fill-rule="evenodd"/></svg>