<svg width="30" height="30" fill="none" xmlns="http://www.w3.org/2000/svg"><path fill-rule="evenodd" clip-rule="evenodd" d="M1.212 29.99h27.576c.67 0 1.212-.542 1.212-1.211V1.212C30 .542 29.457 0 28.788 0H1.212C.542 0 0 .543 0 1.212V28.78c0 .67.543 1.212 1.212 1.212z" fill="#FFFFFE"/><path fill-rule="evenodd" clip-rule="evenodd" d="M1.874 29.338h26.252c.67 0 1.212-.543 1.212-1.212V16.212c0-.67-.543-1.212-1.212-1.212H1.874c-.67 0-1.212.543-1.212 1.212v11.914c0 .67.543 1.212 1.212 1.212zM14.35 4.194l-1.44 6.737h-1.743l1.44-6.737h1.744zm7.333 4.35l.917-2.53.528 2.53h-1.445zm1.945 2.387h1.612l-1.41-6.737h-1.486a.793.793 0 00-.742.494l-2.616 6.243h1.83l.364-1.006h2.236l.211 1.006zm-4.55-2.2c.008-1.777-2.457-1.876-2.441-2.67.005-.242.235-.499.739-.564.25-.033.938-.059 1.719.301l.305-1.43a4.7 4.7 0 00-1.63-.297c-1.723 0-2.935.915-2.945 2.227-.01.97.866 1.51 1.525 1.834.68.33.908.541.905.836-.005.452-.543.652-1.043.66-.877.014-1.385-.237-1.79-.426l-.316 1.477c.408.187 1.16.35 1.937.357 1.832 0 3.03-.904 3.035-2.304zM11.86 4.195l-2.824 6.737H7.194l-1.39-5.376c-.084-.331-.157-.453-.413-.592-.42-.228-1.111-.44-1.72-.573l.042-.196h2.965c.378 0 .718.252.804.687l.734 3.898 1.813-4.585h1.831z" fill="#262C3D"/><path fill-rule="evenodd" clip-rule="evenodd" d="M6.989 23.308c.197.116.504.217.822.217.394 0 .616-.187.616-.464 0-.258-.171-.41-.6-.566-.566-.197-.924-.5-.924-.984 0-.56.464-.979 1.206-.979.369 0 .636.08.813.167l-.147.504a1.483 1.483 0 00-.68-.161c-.395 0-.561.207-.561.409 0 .262.197.383.651.555.59.227.873.525.873 1.01 0 .55-.414 1.019-1.287 1.019-.363 0-.737-.101-.923-.212l.14-.515zm4.482-.833H10.19v1h1.434v.51H9.568v-3.403h1.979v.51h-1.358v.879h1.282v.504zm3.084 1.408c-.146.07-.47.152-.883.152-1.08 0-1.736-.677-1.736-1.711 0-1.12.782-1.792 1.822-1.792.409 0 .696.08.823.146l-.132.495a1.673 1.673 0 00-.666-.131c-.691 0-1.19.434-1.19 1.251 0 .747.433 1.222 1.185 1.222.247 0 .51-.05.676-.121l.101.49zm1.096-3.301v1.984c0 .666.278.974.697.974.449 0 .716-.308.716-.974v-1.984h.621v1.944c0 1.05-.54 1.514-1.358 1.514-.787 0-1.297-.44-1.297-1.51v-1.948h.621zm3.311 1.55h.369c.419 0 .676-.222.676-.56 0-.369-.257-.545-.66-.545-.198 0-.324.015-.385.03v1.075zm-.615-1.499c.237-.045.58-.076.939-.076.489 0 .817.081 1.05.273.186.156.292.394.292.686 0 .44-.298.737-.62.848v.015c.246.091.393.328.474.656.11.424.201.818.267.95h-.636c-.05-.102-.136-.38-.227-.803-.1-.444-.257-.586-.61-.596h-.314v1.398h-.615v-3.351zm4.724 1.842H21.79v1h1.434v.51H21.17v-3.403h1.978v.51H21.79v.879h1.282v.504z" fill="#FFFFFE"/></svg>