<svg width="70" height="70" xmlns="http://www.w3.org/2000/svg" xmlns:xlink="http://www.w3.org/1999/xlink"><defs><filter x="-50%" y="-50%" width="200%" height="200%" filterUnits="objectBoundingBox" id="a"><feOffset dy="1" in="SourceAlpha" result="shadowOffsetOuter1"/><feGaussianBlur stdDeviation="2.5" in="shadowOffsetOuter1" result="shadowBlurOuter1"/><feColorMatrix values="0 0 0 0 0.196078431 0 0 0 0 0.650980392 0 0 0 0 0.996078431 0 0 0 0.2 0" in="shadowBlurOuter1"/></filter><path d="M129.56 27c-.01 9.4-.02 18.8-.032 28.2-.04.121-.093.237-.159.346H97.234V31.692c2-.3 4.023-.607 6.043-.9 5.12-.752 10.242-1.501 15.364-2.248l9.272-1.357c.196-.045.387-.106.573-.183h1.074V27zm-.06 31.628V87l-32.254-4.567v-23.8H129.5v-.005zM70 78.711v-20.35h24.278v23.7L70 78.711zm24.3-46.6v23.646H70.037v-20.33L94.3 32.111z" id="b"/></defs><g transform="translate(-65 -23)" fill="none" fill-rule="evenodd"><use fill="#000" filter="url(#a)" xlink:href="#b"/><use fill="#FFF" xlink:href="#b"/></g></svg>