<svg width="59" height="66" xmlns="http://www.w3.org/2000/svg"><g fill="#2292E7" fill-rule="evenodd"><path d="M55.1 13.8L32.8.9c-2.1-1.2-4.9-1.2-7 0L3.5 13.8C1.3 15 0 17.4 0 19.9v25.7c0 2.5 1.3 4.8 3.5 6.1l22.3 12.9c1.1.6 2.3.9 3.5.9 1.2 0 2.4-.3 3.5-.9l22.3-12.9c2.2-1.2 3.5-3.6 3.5-6.1V19.9c0-2.5-1.4-4.9-3.5-6.1zm1 6.1v25.7c0 1.6-.9 3.1-2.2 3.9L31.5 62.4c-1.4.8-3.1.8-4.5 0L4.8 49.5c-1.4-.8-2.2-2.3-2.2-3.9V19.9c0-1.6.9-3.1 2.2-3.9L27 3.1c.7-.4 1.5-.6 2.2-.6.7 0 1.6.2 2.2.6L53.8 16c1.4.8 2.3 2.2 2.3 3.9z"/><path d="M15.2 27.5h6.1v18.4h-6.1zm10.9-3.6h6.1v18.4h-6.1zm11.2-4.4h6.1v18.4h-6.1z"/></g></svg>