<svg width="1080" height="280" xmlns="http://www.w3.org/2000/svg"><g fill="#2292E7" fill-rule="evenodd"><path d="M21.86 77.476l78.93-43.751c4.914-2.724 11.055-2.51 15.727.125l77.794 46.91a15.9 15.9 0 017.67 13.836l-1.784 90.217c-.07 5.666-3.314 10.68-8.228 13.403l-78.93 43.752c-4.913 2.723-11.054 2.51-15.726-.125l-77.454-46.296c-2.421-1.471-4.399-3.59-5.592-5.742-1.193-2.153-2.112-5.26-1.907-7.786l1.443-90.832c.07-5.666 2.837-10.817 8.058-13.71zM4.83 90.936L3.219 181.46c-.107 8.5 4.665 17.108 11.93 21.522l77.623 46.603c7.435 4.721 17.022 4.632 24.7.376l78.93-43.75c7.677-4.257 12.525-12.17 12.768-21.146l1.613-90.525c-.032-4.403-1.156-8.604-3.2-12.293-2.046-3.69-5.012-6.868-8.73-9.23L121.23 26.416c-7.435-4.721-17.022-4.632-24.7-.376L17.6 69.789C9.923 74.047 4.938 82.437 4.832 90.936z"/><path d="M57 185h21v-65H57zm38-13h21v-65H95zm40-16h21V91h-21zm257.598-40h-17.173L356.5 142.056 337.575 116h-17.173l26.986 36.62L319 191h16.822l20.678-28.169L376.827 191H394l-28.738-38.38zm66.352 36.756c0 15.363-8.4 25.837-21 25.837-7.35 0-15.4-4.19-19.25-10.125v-31.075c3.85-5.935 11.9-10.125 19.25-10.125 12.95 0 21 10.125 21 25.488M440.75 114c-8.4 0-16.45 3.492-22.05 9.427v-7.681H404V217h14.7v-34.566c5.95 5.935 13.65 9.427 22.05 9.427 19.95 0 33.25-15.712 33.25-39.105C474 129.363 461.05 114 440.75 114m55.553 33.3c1.043-8.856 7.304-20.547 21.216-20.547 14.607 0 20.52 11.69 21.563 20.547h-42.779zM517.52 114c-20.87 0-36.52 17.004-36.52 39.323C481 176.704 496.65 193 518.562 193c11.825 0 21.911-3.897 29.215-11.69l1.043-1.063-7.303-10.274-1.392 1.417c-5.217 5.314-12.868 8.502-20.52 8.502-14.607 0-22.259-10.273-23.65-21.255h57.039v-4.606c.348-23.38-14.26-40.031-35.475-40.031zm57.99 10.243v-8.477H561V191h14.51v-51.922c3.108-5.298 11.4-10.243 17.272-10.243 1.382 0 2.763 0 4.145.353l2.073.353V114h-1.727c-8.291.353-15.891 3.885-21.764 10.243m70.467 51.933c-1.063 1.055-3.543 2.461-6.378 2.461-4.96 0-5.669-4.571-5.669-7.384v-42.55h14.528v-13.362h-14.528V96h-14.882v19.34H607v13.363h12.047v45.011c0 11.956 6.378 18.286 17.717 18.286 6.378 0 10.984-1.758 14.527-4.923l.709-.703-4.606-11.956-1.418 1.758zM750.214 139.5c0 26.25-16.518 44.45-39.714 44.45-23.899 0-39.714-17.85-39.714-44.45s16.167-44.45 39.714-44.45c23.547 0 39.714 17.85 39.714 44.45M710.5 87c-28.467 0-48.5 21.7-48.5 52.5s20.033 52.5 48.5 52.5c28.116 0 48.5-22.05 48.5-52.5S738.616 87 710.5 87m67.265 47.25c3.882-6.284 13.411-12.918 24-12.918 15.53 0 25.411 12.22 25.411 31.424 0 19.203-9.882 31.424-25.411 31.424-10.589 0-19.765-6.634-24-13.268V134.25zM802.118 114c-8.824 0-18 3.84-24 10.475v-8.73H770V217h8.118v-35.963c6.353 6.634 14.823 10.824 24 10.824 20.117 0 33.882-15.712 33.882-39.105-.353-23.044-13.765-38.756-33.882-38.756zm70.909 67.099c-1.405 1.406-3.865 3.165-7.027 3.165-4.919 0-5.973-4.572-5.973-8.44v-53.099h14.405v-7.384h-14.405V96h-8.081v19.34H840v7.385h11.946v53.1c0 10.197 4.919 16.175 13.703 16.175 6.324 0 9.486-2.462 12.297-4.923l1.054-1.055-4.919-6.33-1.054 1.407zM892 191h9v-75h-9zm4-97c-3.176 0-6 2.824-6 6s2.824 6 6 6 6-2.824 6-6-2.47-6-6-6m78.6 59.323c0 15.587-8.4 31.883-26.6 31.883-17.5 0-26.6-15.941-26.6-31.883 0-15.942 9.1-31.884 26.6-31.884 18.2 0 26.6 16.65 26.6 31.884M948 114c-20.3 0-35 16.65-35 39.323C913 176.35 927.7 193 948 193s35-16.65 35-39.677C983 130.65 968.3 114 948 114m76 0c-8.696 0-17.74 4.945-24 10.243v-8.477h-8V191h8v-57.22c4.522-6.005 13.913-12.363 23.304-12.363 11.479 0 16.696 5.299 16.696 17.661V191h8v-51.922c0-16.954-8-25.078-24-25.078m-708-11.58L305.087 88H247v102h67.944v-14.42H262.49v-30.6h51.398v-14.421H262.49V102.42zm746.456 7.174h1.437c.709 0 1.278-.184 1.708-.552.43-.368.645-.836.645-1.404 0-.665-.19-1.142-.571-1.43-.382-.289-.985-.433-1.809-.433h-1.41v3.82zm5.772-2.01c0 .71-.189 1.338-.565 1.884-.377.545-.907.951-1.59 1.217l3.165 5.256h-2.234l-2.752-4.71h-1.796v4.71h-1.968v-11.856h3.471c1.472 0 2.551.288 3.238.865.687.577 1.03 1.455 1.03 2.635zm-15.056 2.423c0-1.951.487-3.781 1.463-5.489a10.734 10.734 0 014.022-4.04 10.842 10.842 0 015.515-1.478c1.95 0 3.779.488 5.485 1.464a10.734 10.734 0 014.037 4.025 10.86 10.86 0 011.478 5.518c0 1.923-.473 3.728-1.419 5.416-.946 1.688-2.272 3.04-3.979 4.055-1.706 1.015-3.574 1.522-5.602 1.522-2.019 0-3.881-.505-5.588-1.515-1.706-1.01-3.035-2.359-3.986-4.047a10.89 10.89 0 01-1.426-5.43zm2.396 0c0 1.534.386 2.97 1.157 4.304a8.455 8.455 0 003.158 3.154 8.462 8.462 0 004.289 1.151 8.366 8.366 0 004.295-1.158 8.663 8.663 0 003.145-3.133 8.357 8.357 0 001.164-4.318 8.38 8.38 0 00-1.157-4.298 8.663 8.663 0 00-3.132-3.147 8.343 8.343 0 00-4.315-1.165 8.366 8.366 0 00-4.295 1.158 8.663 8.663 0 00-3.145 3.134 8.357 8.357 0 00-1.164 4.318z"/></g></svg>